<svg width="50" height="50" viewBox="0 0 50 50" fill="none" xmlns="http://www.w3.org/2000/svg">
    <rect x="0.5" y="0.5" width="49" height="49" rx="24.5" fill="white" stroke="#E3E3E3"/>
    <path d="M17.373 38H33.1934C34.5019 38 35.5664 36.9355 35.5664 35.627V18.9102H30.0293C28.7207 18.9102 27.6562 17.8457 27.6562 16.5371V11H17.373C16.0645 11 15 12.0645 15 13.373V35.627C15 36.9355 16.0645 38 17.373 38ZM20.5371 22.127H30.0293C30.4665 22.127 30.8203 22.4807 30.8203 22.918C30.8203 23.3552 30.4665 23.709 30.0293 23.709H20.5371C20.0999 23.709 19.7461 23.3552 19.7461 22.918C19.7461 22.4807 20.0999 22.127 20.5371 22.127ZM20.5371 25.291H30.0293C30.4665 25.291 30.8203 25.6448 30.8203 26.082C30.8203 26.5193 30.4665 26.873 30.0293 26.873H20.5371C20.0999 26.873 19.7461 26.5193 19.7461 26.082C19.7461 25.6448 20.0999 25.291 20.5371 25.291ZM20.5371 28.4551H30.0293C30.4665 28.4551 30.8203 28.8089 30.8203 29.2461C30.8203 29.6833 30.4665 30.0371 30.0293 30.0371H20.5371C20.0999 30.0371 19.7461 29.6833 19.7461 29.2461C19.7461 28.8089 20.0999 28.4551 20.5371 28.4551ZM20.5371 31.6191H26.8652C27.3025 31.6191 27.6562 31.9729 27.6562 32.4102C27.6562 32.8474 27.3025 33.2012 26.8652 33.2012H20.5371C20.0999 33.2012 19.7461 32.8474 19.7461 32.4102C19.7461 31.9729 20.0999 31.6191 20.5371 31.6191Z" fill="url(#paint0_linear)"/>
    <path d="M30.0293 17.3275H35.1029L29.2383 11.4629V16.5365C29.2383 16.9729 29.5929 17.3275 30.0293 17.3275Z" fill="#FA7D08"/>
    <defs>
        <linearGradient id="paint0_linear" x1="25.2832" y1="11" x2="25.2832" y2="38" gradientUnits="userSpaceOnUse">
            <stop stop-color="#515151"/>
            <stop offset="0.21875" stop-color="#6A6A6A"/>
            <stop offset="0.427083" stop-color="#515151"/>
            <stop offset="1" stop-color="#121212"/>
        </linearGradient>
    </defs>
</svg>
