<svg width="66" height="66" viewBox="0 0 66 66" fill="none" xmlns="http://www.w3.org/2000/svg">
    <path d="M12.9023 0.5H53.0977C59.9509 0.5 65.5 6.01308 65.5 12.8059V53.1939C65.5 59.9867 59.9509 65.4998 53.0977 65.4998H12.9023C6.04914 65.4998 0.5 59.9867 0.5 53.1939V12.8059C0.5 6.01308 6.04914 0.5 12.9023 0.5Z" fill="#FA980B" stroke="#E48B0A"/>
    <path d="M33 33H65V53C65 59.6274 59.6274 65 53 65H33V33Z" fill="#E2E2E2"/>
    <path fill-rule="evenodd" clip-rule="evenodd" d="M65.999 33.0095H33V66H32V33.0095H0V32.0405H32V0H33V32.0405H66V33.0095H65.999Z" fill="#E48B0A"/>
    <path fill-rule="evenodd" clip-rule="evenodd" d="M22.5194 18.2089H18.2089V22.5194C18.2089 22.6469 18.1583 22.7691 18.0682 22.8592C17.978 22.9494 17.8558 23 17.7283 23H16.2866C16.1591 23 16.0369 22.9494 15.9467 22.8592C15.8566 22.7691 15.806 22.6469 15.806 22.5194V18.2089H11.4806C11.3531 18.2089 11.2309 18.1583 11.1408 18.0682C11.0506 17.978 11 17.8558 11 17.7283V16.2866C11 16.1591 11.0506 16.0369 11.1408 15.9467C11.2309 15.8566 11.3531 15.806 11.4806 15.806H15.806V11.4806C15.806 11.3531 15.8566 11.2309 15.9467 11.1408C16.0369 11.0506 16.1591 11 16.2866 11H17.7283C17.8558 11 17.978 11.0506 18.0682 11.1408C18.1583 11.2309 18.2089 11.3531 18.2089 11.4806V15.806H22.5194C22.6469 15.806 22.7691 15.8566 22.8592 15.9467C22.9494 16.0369 23 16.1591 23 16.2866V17.7283C23 17.8558 22.9494 17.978 22.8592 18.0682C22.7691 18.1583 22.6469 18.2089 22.5194 18.2089Z" fill="white"/>
    <path d="M53.5194 16H42.4806C42.2152 16 42 16.2239 42 16.5V18C42 18.2761 42.2152 18.5 42.4806 18.5H53.5194C53.7848 18.5 54 18.2761 54 18V16.5C54 16.2239 53.7848 16 53.5194 16Z" fill="white"/>
    <path fill-rule="evenodd" clip-rule="evenodd" d="M21.8559 45.8855L18.7339 49.0105L21.8451 52.1248C21.9371 52.2168 21.9887 52.3417 21.9887 52.4719C21.9887 52.6021 21.9371 52.727 21.8451 52.8191L20.8046 53.8606C20.7126 53.9527 20.5878 54.0044 20.4578 54.0044C20.3277 54.0044 20.2029 53.9527 20.1109 53.8606L16.9998 50.7464L13.8886 53.8606C13.7966 53.9527 13.6718 54.0044 13.5417 54.0044C13.4117 54.0044 13.2869 53.9527 13.1949 53.8606L12.1544 52.8191C12.0625 52.727 12.0108 52.6021 12.0108 52.4719C12.0108 52.3417 12.0625 52.2168 12.1544 52.1248L15.2656 49.0105L12.1436 45.8855C12.0517 45.7934 12 45.6685 12 45.5383C12 45.4081 12.0517 45.2832 12.1436 45.1912L13.1841 44.1496C13.2761 44.0576 13.4009 44.0059 13.531 44.0059C13.661 44.0059 13.7858 44.0576 13.8778 44.1496L16.9993 47.2732L20.1212 44.1482C20.2132 44.0561 20.338 44.0044 20.4681 44.0044C20.5981 44.0044 20.7229 44.0561 20.8149 44.1482L21.8554 45.1897C21.9012 45.2353 21.9375 45.2895 21.9623 45.3491C21.9872 45.4088 22 45.4728 22 45.5375C22 45.6021 21.9873 45.6662 21.9626 45.7259C21.9379 45.7856 21.9016 45.8398 21.8559 45.8855Z" fill="white"/>
    <path fill-rule="evenodd" clip-rule="evenodd" d="M54.5194 53H43.4806C43.3531 53 43.2309 52.9473 43.1408 52.8536C43.0506 52.7598 43 52.6326 43 52.5V51C43 50.8674 43.0506 50.7402 43.1408 50.6464C43.2309 50.5527 43.3531 50.5 43.4806 50.5H54.5194C54.6469 50.5 54.7691 50.5527 54.8592 50.6464C54.9494 50.7402 55 50.8674 55 51V52.5C55 52.6326 54.9494 52.7598 54.8592 52.8536C54.7691 52.9473 54.6469 53 54.5194 53ZM54.5194 46.5H43.4806C43.3531 46.5 43.2309 46.4473 43.1408 46.3536C43.0506 46.2598 43 46.1326 43 46V44.5C43 44.3674 43.0506 44.2402 43.1408 44.1464C43.2309 44.0527 43.3531 44 43.4806 44H54.5194C54.6469 44 54.7691 44.0527 54.8592 44.1464C54.9494 44.2402 55 44.3674 55 44.5V46C55 46.1326 54.9494 46.2598 54.8592 46.3536C54.7691 46.4473 54.6469 46.5 54.5194 46.5Z" fill="#636363"/>
</svg>
