<svg width="50" height="50" viewBox="0 0 50 50" fill="none" xmlns="http://www.w3.org/2000/svg">
    <rect x="0.5" y="0.5" width="49" height="49" rx="24.5" fill="white" stroke="#E3E3E3"/>
    <path d="M22.4583 27.5452C20.1857 25.2726 19.6726 23 19.5568 22.0895C19.5245 21.8377 19.6111 21.5853 19.7912 21.4064L21.6303 19.5681C21.9009 19.2978 21.9489 18.8764 21.7461 18.5521L18.8179 14.0053C18.5936 13.6462 18.1329 13.5166 17.7543 13.706L13.0535 15.9199C12.7473 16.0707 12.5672 16.396 12.6019 16.7356C12.8482 19.0755 13.8684 24.8276 19.5211 30.4808C25.1739 36.134 30.9252 37.1537 33.2663 37.4C33.6059 37.4348 33.9313 37.2547 34.082 36.9484L36.2959 32.2477C36.4847 31.8698 36.3559 31.4104 35.9983 31.1857L31.4515 28.2583C31.1274 28.0553 30.706 28.103 30.4354 28.3732L28.5972 30.2123C28.4183 30.3924 28.1658 30.4791 27.9141 30.4467C27.0036 30.331 24.731 29.8178 22.4583 27.5452Z" fill="url(#paint0_linear)"/>
    <path d="M30.2515 13.5947C26.8508 13.5947 24.0938 15.9839 24.0938 18.9314C24.0993 20.0129 24.468 21.0611 25.1406 21.908L24.5043 25.0891L27.7325 23.7976C28.5357 24.1095 29.3899 24.269 30.2515 24.2681C33.6521 24.2681 36.4092 21.8789 36.4092 18.9314C36.4092 15.9839 33.6521 13.5947 30.2515 13.5947ZM26.9673 19.7524C26.5139 19.7524 26.1463 19.3848 26.1463 18.9314C26.1463 18.478 26.5139 18.1104 26.9673 18.1104C27.4208 18.1104 27.7884 18.478 27.7884 18.9314C27.7884 19.3848 27.4208 19.7524 26.9673 19.7524ZM30.2515 19.7524C29.798 19.7524 29.4304 19.3848 29.4304 18.9314C29.4304 18.478 29.798 18.1104 30.2515 18.1104C30.7049 18.1104 31.0725 18.478 31.0725 18.9314C31.0725 19.3848 30.7049 19.7524 30.2515 19.7524ZM33.5356 19.7524C33.0821 19.7524 32.7145 19.3848 32.7145 18.9314C32.7145 18.478 33.0821 18.1104 33.5356 18.1104C33.989 18.1104 34.3566 18.478 34.3566 18.9314C34.3566 19.3848 33.989 19.7524 33.5356 19.7524Z" fill="#FA7D08"/>
    <defs>
        <linearGradient id="paint0_linear" x1="24.4901" y1="13.6191" x2="24.4901" y2="37.4043" gradientUnits="userSpaceOnUse">
            <stop stop-color="#515151"/>
            <stop offset="0.21875" stop-color="#6A6A6A"/>
            <stop offset="0.427083" stop-color="#515151"/>
            <stop offset="1" stop-color="#121212"/>
        </linearGradient>
    </defs>
</svg>
