<svg width="100" height="100" viewBox="0 0 100 100" fill="none" xmlns="http://www.w3.org/2000/svg">
    <rect x="1" y="1" width="98" height="98" rx="49" fill="white" stroke="#CECECE" stroke-width="2"/>
    <path d="M98 17.5C98 23.2986 93.2986 28 87.5 28C81.7014 28 77 23.2986 77 17.5C77 11.7014 81.7014 7 87.5 7C93.2986 7 98 11.7014 98 17.5Z" fill="#222628"/>
    <path d="M93.0214 12.6055L85.937 19.6872L83.0193 16.7716L81.5625 18.2284L85.937 22.6049L94.4776 14.0622L93.0214 12.6055Z" fill="white"/>
    <path d="M70.3421 48.7577C70.2998 48.7293 70.2561 48.7031 70.211 48.6792L67.2305 47.0742L50.702 55.8252C50.2629 56.0578 49.7372 56.0578 49.2981 55.8252L32.7696 47.0742L29.7891 48.6792C29.0647 49.0637 28.7891 49.9627 29.1736 50.687C29.1975 50.732 29.2237 50.7758 29.2521 50.8182L50.0001 61.8026L70.748 50.8182C71.205 50.1371 71.0233 49.2146 70.3421 48.7577Z" fill="#FA7D08"/>
    <path d="M70.8173 58.2867C70.6784 58.0293 70.4672 57.8181 70.2098 57.6792L67.2294 56.0742L50.7008 64.8252C50.2617 65.0578 49.736 65.0578 49.2969 64.8252L32.7684 56.0742L29.7878 57.6792C29.0588 58.0727 28.7868 58.9826 29.1803 59.7117C29.3193 59.9691 29.5305 60.1803 29.7878 60.3192L49.2878 70.8192C49.7317 71.0582 50.266 71.0582 50.7098 70.8192L70.2098 60.3192C70.9388 59.9257 71.2108 59.0157 70.8173 58.2867Z" fill="url(#paint0_linear)"/>
    <path d="M70.3421 39.7577C70.2998 39.7294 70.2561 39.7032 70.211 39.6793L50.7111 29.1792C50.2672 28.9403 49.733 28.9403 49.2891 29.1792L29.7891 39.6793C29.0647 40.0638 28.7891 40.9627 29.1736 41.6871C29.1975 41.7321 29.2237 41.7759 29.2521 41.8182L50.0001 52.8027L70.748 41.8182C71.205 41.1372 71.0233 40.2147 70.3421 39.7577Z" fill="url(#paint1_linear)"/>
    <defs>
        <linearGradient id="paint0_linear" x1="49.9988" y1="56.0742" x2="49.9988" y2="70.9984" gradientUnits="userSpaceOnUse">
            <stop stop-color="#515151"/>
            <stop offset="0.21875" stop-color="#6A6A6A"/>
            <stop offset="0.427083" stop-color="#515151"/>
            <stop offset="1" stop-color="#121212"/>
        </linearGradient>
        <linearGradient id="paint1_linear" x1="50" y1="29" x2="50" y2="52.8027" gradientUnits="userSpaceOnUse">
            <stop stop-color="#515151"/>
            <stop offset="0.21875" stop-color="#6A6A6A"/>
            <stop offset="0.427083" stop-color="#515151"/>
            <stop offset="1" stop-color="#121212"/>
        </linearGradient>
    </defs>
</svg>
