<svg width="65" height="66" viewBox="0 0 65 66" fill="none" xmlns="http://www.w3.org/2000/svg">
    <rect x="0.5" y="1.5" width="64" height="64" rx="32" fill="white" stroke="#E3E3E3"/>
    <path d="M38.3322 22.0423C35.9612 17.2009 31.0013 14 25.4378 14C17.4771 14 11.0006 20.4397 11.0006 28.3551C11.0006 30.5063 11.4625 32.5681 12.374 34.4904L11.0245 41.2386C10.8527 42.0976 11.6105 42.8568 12.4697 42.6869L19.301 41.3363C20.2208 41.7726 21.1724 42.1044 22.1501 42.333C19.9585 31.9529 27.8264 22.2095 38.3322 22.0423Z" fill="#FA7D08"/>
    <path d="M51.6279 44.9899C51.8637 44.4927 52.0687 43.9861 52.2441 43.4712H52.199C55.2709 34.4548 48.8108 24.9784 39.2739 24.517C39.2738 24.5165 39.2737 24.516 39.2735 24.5155C31.0676 24.1374 24.25 30.7076 24.25 38.8546C24.25 46.7634 30.6779 53.198 38.5841 53.2095C40.7285 53.2066 42.784 52.745 44.7008 51.8357C52.1825 53.3149 51.599 53.2097 51.7708 53.2097C52.5484 53.2097 53.1292 52.4972 52.9774 51.738L51.6279 44.9899Z" fill="url(#paint0_linear)"/>
    <path d="M62 10.5C62 16.2986 57.2986 21 51.5 21C45.7014 21 41 16.2986 41 10.5C41 4.70137 45.7014 0 51.5 0C57.2986 0 62 4.70137 62 10.5Z" fill="#222628"/>
    <path d="M57.0214 5.60547L49.937 12.6872L47.0193 9.77161L45.5625 11.2284L49.937 15.6049L58.4776 7.06224L57.0214 5.60547Z" fill="white"/>
    <defs>
        <linearGradient id="paint0_linear" x1="38.6258" y1="24.5" x2="38.6258" y2="53.2114" gradientUnits="userSpaceOnUse">
            <stop stop-color="#515151"/>
            <stop offset="0.21875" stop-color="#6A6A6A"/>
            <stop offset="0.427083" stop-color="#515151"/>
            <stop offset="1" stop-color="#121212"/>
        </linearGradient>
    </defs>
</svg>
