<svg width="50" height="50" viewBox="0 0 50 50" fill="none" xmlns="http://www.w3.org/2000/svg">
    <path d="M13.4011 29.7882V31.0726C13.4011 32.571 14.595 33.7765 16.079 33.7765C17.5631 33.7765 18.757 32.571 18.757 31.0726V29.7882C17.0052 30.2952 15.1529 30.2952 13.4011 29.7882Z" fill="#FA7D08"/>
    <path d="M20.5423 14.849L19.4934 13.4295L17.2172 15.2659C16.1125 16.1559 14.7289 16.6404 13.3118 16.6404H8.04512V20.2456C8.05628 24.7183 11.6492 28.3461 16.079 28.3574C17.909 28.3574 19.6943 27.7265 21.1114 26.5548H16.079V24.7521H22.7516C23.6331 23.4227 24.1129 21.8454 24.1129 20.2456V16.6404C22.707 16.6516 21.3903 15.9757 20.5423 14.849ZM12.5084 20.2569H10.7231V18.4543H12.5084V20.2569ZM21.435 20.2569H19.6497V18.4543H21.435V20.2569Z" fill="#FA7D08"/>
    <path d="M41.2073 20.6399L42.8587 19.3894V9.21586C42.8587 8.92294 43.0038 8.64128 43.2381 8.47228C45.6706 6.77107 46.262 3.39117 44.5771 0.946372C44.3428 0.597116 44.0638 0.281658 43.7514 0V4.03335C43.7514 4.4164 43.5059 4.76566 43.1377 4.88959L40.4597 5.7909C40.2812 5.84723 40.0803 5.84723 39.8907 5.7909L37.2127 4.88959C36.8445 4.76566 36.599 4.42767 36.599 4.03335V0C34.3897 1.99414 34.2 5.40784 36.175 7.63858C36.4539 7.95403 36.7664 8.23569 37.1123 8.47228C37.3466 8.64128 37.4916 8.91167 37.4916 9.2046V15.7503H38.3843C38.8306 15.7503 39.21 16.0771 39.2658 16.5277L39.277 16.5953V9.44119H41.0623V20.5836C41.1181 20.6061 41.1627 20.6174 41.2073 20.6399Z" fill="#FA7D08"/>
    <path d="M45.9942 35.0158C46.0946 34.6778 46.3736 34.4187 46.7306 34.3736L50 33.8891V30.0586L46.7195 29.5854C46.3736 29.5403 46.0835 29.2925 45.983 28.9432C45.771 28.1996 45.4698 27.4673 45.1015 26.7913C44.9453 26.4759 44.9676 26.0928 45.1685 25.8112L47.1547 23.1411L44.4655 20.4259L41.821 22.4313C41.5421 22.6453 41.1627 22.6679 40.8503 22.4989C40.1696 22.1271 39.4555 21.8229 38.719 21.6088C38.3843 21.5074 38.1277 21.2258 38.083 20.8653L37.6144 17.553H33.8206L33.3519 20.8653L32.4704 20.7413C31.6671 20.9779 30.886 21.2934 30.1495 21.7102L29.5805 21.2821C29.3015 21.5638 28.9556 21.7778 28.5874 21.913V23.8621C28.5874 25.3493 27.3823 26.566 25.9094 26.566H25.4408C25.0837 27.242 24.8048 27.9518 24.5927 28.6841L21.4461 29.146V30.8247L23.2314 31.5457V31.0726H25.0168V32.2668L27.7728 33.3822C27.7952 33.3934 27.8175 33.4047 27.8398 33.4047C27.7505 32.9315 27.6947 32.4583 27.6947 31.9739C27.6947 27.4899 31.2877 23.8621 35.7286 23.8621C40.1696 23.8621 43.7626 27.4899 43.7626 31.9739C43.7626 36.4579 40.1696 40.0856 35.7286 40.0856C34.9922 40.0856 34.2558 39.9842 33.5416 39.7702C33.8094 40.6827 33.9433 41.6291 33.9433 42.5868V46.3948H37.6255L38.0942 43.0825C38.1388 42.7332 38.3843 42.4403 38.7302 42.3389C39.4666 42.1248 40.1919 41.8206 40.8614 41.4489C41.1739 41.2911 41.5532 41.3137 41.8322 41.5164L44.4767 43.5219L47.1658 40.8067L45.1797 38.1366C44.9788 37.8436 44.9453 37.4718 45.1127 37.1564C45.4809 36.4804 45.771 35.7593 45.9942 35.0158ZM46.4294 31.0726H48.2147V32.8752H46.4294V31.0726ZM36.6101 21.1582H34.8248V19.3556H36.6101V21.1582ZM36.6101 44.5922H34.8248V42.7895H36.6101V44.5922ZM45.1908 40.2546L43.9188 41.539L42.6579 40.2546L43.9188 38.9815L45.1908 40.2546ZM43.9188 24.9662L42.6579 23.6931L43.9188 22.4087L45.1908 23.6931L43.9188 24.9662Z" fill="#FA7D08"/>
    <path d="M32.1469 50V42.5868C32.158 39.2632 30.1495 36.2776 27.0922 35.0496L20.3415 32.3231C19.672 34.7003 17.2172 36.0861 14.8628 35.4101C13.3787 34.982 12.2294 33.8215 11.8054 32.3231L5.05472 35.0496C1.99737 36.2776 -0.011112 39.2632 4.62562e-05 42.5868V50H5.35599V40.0856H7.1413V50H24.9944V40.0856H26.7798V50H32.1469Z" fill="#FA7D08"/>
    <path d="M28.5762 19.3556V16.6516C28.5762 16.1559 28.1745 15.7503 27.6836 15.7503H25.8983V20.2569H27.6836C28.1745 20.2569 28.5762 19.8513 28.5762 19.3556Z" fill="#FA7D08"/>
    <path d="M16.079 5.83596C11.6492 5.83596 8.04512 9.47499 8.04512 13.9477V14.849H13.3118C14.3272 14.849 15.3091 14.4998 16.1013 13.8576L19.0917 11.4353C19.2814 11.2889 19.5269 11.21 19.7612 11.2438C19.9956 11.2776 20.2187 11.4015 20.3638 11.5931L21.9706 13.7562C22.4727 14.4322 23.2649 14.8378 24.1129 14.8378V13.9365C24.1129 9.47499 20.5088 5.83596 16.079 5.83596Z" fill="#FA7D08"/>
    <path d="M35.7175 38.283C39.1654 38.283 41.9661 35.4552 41.9661 31.9739C41.9661 28.4926 39.1654 25.6647 35.7175 25.6647C32.2696 25.6647 29.4689 28.4926 29.4689 31.9739C29.4689 32.9315 29.692 33.8779 30.1161 34.7341C31.0422 35.4552 31.8344 36.3339 32.4481 37.3254C33.4301 37.945 34.557 38.283 35.7175 38.283Z" fill="#FA7D08"/>
    <path d="M3.58183 16.6516V19.3556C3.58183 19.8513 3.98353 20.2569 4.47449 20.2569H6.2598V15.7503H4.47449C3.98353 15.7503 3.58183 16.1559 3.58183 16.6516Z" fill="#FA7D08"/>
    <path d="M26.7909 23.8621V22.0595H25.8983C25.8425 22.0595 25.7867 22.0482 25.7309 22.0482C25.5635 22.9946 25.2511 23.9072 24.8159 24.7634H25.8983C26.3892 24.7634 26.7909 24.3578 26.7909 23.8621Z" fill="#FA7D08"/>
    <path d="M28.5762 13.9477H26.7909V13.0464C26.7909 7.07526 21.9929 2.23073 16.079 2.23073C10.1652 2.23073 5.36715 7.07526 5.36715 13.0464V13.9477H3.58183V13.0464C3.58183 6.07256 9.1721 0.428121 16.079 0.428121C22.986 0.428121 28.5762 6.07256 28.5762 13.0464V13.9477Z" fill="#FA7D08"/>
</svg>
