<svg width="42" height="42" viewBox="0 0 42 42" fill="none" xmlns="http://www.w3.org/2000/svg">
    <path d="M23.543 0C22.8628 0 22.3125 0.550348 22.3125 1.23047V18.5391C22.3125 19.2192 22.8628 19.7695 23.543 19.7695H40.7695C41.4497 19.7695 42 19.2192 42 18.5391C42 8.36128 33.7207 0 23.543 0Z" fill="#FA7D08"/>
    <path d="M25.8225 39.241L19.8516 23.2374V6.23438C19.8516 5.55425 19.3012 5.00391 18.6211 5.00391C8.44331 5.00391 0 13.2832 0 23.4609C0 33.6387 8.44331 42 18.6211 42C20.8489 42 23.0299 41.6047 25.1027 40.826C25.7384 40.5868 26.0604 39.8779 25.8225 39.241Z" fill="url(#paint0_linear)"/>
    <path d="M40.7698 22.2305H23.5432C23.1395 22.2305 22.7622 22.4287 22.5314 22.7604C22.3019 23.092 22.2491 23.515 22.3908 23.8935L28.4398 40.1062C28.5552 40.4115 28.7859 40.659 29.0839 40.7936C29.3821 40.9292 29.7181 40.9406 30.026 40.8248C37.1877 38.1295 42.0003 31.1033 42.0003 23.4609C42.0003 22.7808 41.4499 22.2305 40.7698 22.2305Z" fill="url(#paint1_linear)"/>
    <defs>
        <linearGradient id="paint0_linear" x1="12.9504" y1="5.00391" x2="12.9504" y2="42" gradientUnits="userSpaceOnUse">
            <stop stop-color="#515151"/>
            <stop offset="0.21875" stop-color="#6A6A6A"/>
            <stop offset="0.427083" stop-color="#515151"/>
            <stop offset="1" stop-color="#121212"/>
        </linearGradient>
        <linearGradient id="paint1_linear" x1="32.1564" y1="22.2305" x2="32.1564" y2="40.9042" gradientUnits="userSpaceOnUse">
            <stop stop-color="#515151"/>
            <stop offset="0.21875" stop-color="#6A6A6A"/>
            <stop offset="0.427083" stop-color="#515151"/>
            <stop offset="1" stop-color="#121212"/>
        </linearGradient>
    </defs>
</svg>
