<svg width="100" height="100" viewBox="0 0 100 100" fill="none" xmlns="http://www.w3.org/2000/svg">
    <rect x="1" y="1" width="98" height="98" rx="49" fill="white" stroke="#CECECE" stroke-width="2"/>
    <path d="M56 38.8432C53.6578 34.1216 48.7582 31 43.2623 31C35.3984 31 29.0006 37.2803 29.0006 44.9997C29.0006 47.0976 29.4568 49.1083 30.3573 50.9831L29.0242 57.5642C28.8545 58.4019 29.6031 59.1424 30.4518 58.9766L37.2001 57.6594C38.1087 58.0849 39.0487 58.4085 40.0145 58.6315C37.8496 48.5084 45.6219 39.0062 56 38.8432Z" fill="#FA7D08"/>
    <path d="M69.6144 60.9822C69.8522 60.4974 70.059 60.0033 70.2359 59.5012H70.1905C73.2888 50.7081 66.773 41.4666 57.1537 41.0166C57.1535 41.0161 57.1534 41.0156 57.1533 41.0152C48.8765 40.6464 42 47.0538 42 54.9989C42 62.7118 48.4834 68.987 56.4579 68.9982C58.6209 68.9954 60.6941 68.5451 62.6275 67.6585C70.1737 69.101 69.5852 68.9984 69.7586 68.9984C70.5428 68.9984 71.1287 68.3036 70.9756 67.5632L69.6144 60.9822Z" fill="url(#paint0_linear)"/>
    <path d="M98 17.5C98 23.2986 93.2986 28 87.5 28C81.7014 28 77 23.2986 77 17.5C77 11.7014 81.7014 7 87.5 7C93.2986 7 98 11.7014 98 17.5Z" fill="#222628"/>
    <path d="M93.0214 12.6055L85.937 19.6872L83.0193 16.7716L81.5625 18.2284L85.937 22.6049L94.4776 14.0622L93.0214 12.6055Z" fill="white"/>
    <defs>
        <linearGradient id="paint0_linear" x1="56.5" y1="41" x2="56.5" y2="69" gradientUnits="userSpaceOnUse">
            <stop stop-color="#515151"/>
            <stop offset="0.21875" stop-color="#6A6A6A"/>
            <stop offset="0.427083" stop-color="#515151"/>
            <stop offset="1" stop-color="#121212"/>
        </linearGradient>
    </defs>
</svg>
