<svg width="86" height="71" viewBox="0 0 86 71" fill="none" xmlns="http://www.w3.org/2000/svg">
    <path fill-rule="evenodd" clip-rule="evenodd" d="M0 12.8514L44.3061 5.31104L54.0823 62.7657L9.77571 70.308L0 12.8514Z" fill="#EAEAEA"/>
    <path fill-rule="evenodd" clip-rule="evenodd" d="M17.6254 17.859L29.3085 15.8711C29.626 15.8224 29.9499 15.9005 30.2104 16.0884C30.4709 16.2764 30.6471 16.5592 30.701 16.8758C30.7549 17.1925 30.6822 17.5176 30.4986 17.7812C30.315 18.0447 30.0352 18.2256 29.7195 18.2847L18.0358 20.2727C17.7186 20.3206 17.3953 20.2421 17.1354 20.0541C16.8754 19.8661 16.6997 19.5835 16.6459 19.2673C16.5921 18.951 16.6646 18.6263 16.8478 18.3629C17.031 18.0996 17.3102 17.9186 17.6254 17.859ZM9.29482 27.7863L40.4469 22.4873C40.7667 22.4328 41.0951 22.5073 41.3599 22.6947C41.6247 22.882 41.8044 23.1668 41.8595 23.4865V23.4919C41.9138 23.812 41.8389 24.1405 41.651 24.4053C41.4632 24.6701 41.1779 24.8495 40.8578 24.904L9.70673 30.2069C9.38667 30.2613 9.05811 30.1863 8.79332 29.9985C8.52852 29.8107 8.34916 29.5254 8.29468 29.2053V29.1999C8.24028 28.88 8.31506 28.5517 8.50258 28.2869C8.69011 28.0222 8.97505 27.8426 9.29482 27.7878V27.7863ZM10.2061 33.1422L41.3582 27.8431C41.6782 27.7888 42.0068 27.8637 42.2716 28.0516C42.5364 28.2394 42.7157 28.5247 42.7702 28.8448V28.8502C42.8246 29.1703 42.7496 29.4988 42.5618 29.7636C42.3739 30.0284 42.0886 30.2078 41.7686 30.2622L10.618 35.5628C10.2979 35.6171 9.96935 35.5422 9.70456 35.3543C9.43976 35.1665 9.2604 34.8812 9.20592 34.5611V34.5557C9.15152 34.2359 9.2263 33.9075 9.41382 33.6427C9.60135 33.378 9.88629 33.1985 10.2061 33.1437V33.1422ZM11.6147 41.4194L42.7663 36.1204C42.9249 36.0931 43.0874 36.0974 43.2444 36.133C43.4014 36.1686 43.5499 36.2348 43.6813 36.3278C43.8126 36.4209 43.9244 36.5389 44.0101 36.6752C44.0958 36.8114 44.1538 36.9633 44.1808 37.122V37.1274C44.2352 37.4475 44.1602 37.7761 43.9724 38.0408C43.7845 38.3056 43.4992 38.485 43.1792 38.5395L12.0281 43.8405C11.708 43.8949 11.3794 43.8199 11.1146 43.632C10.8498 43.4442 10.6705 43.1589 10.616 42.8389V42.8334C10.5614 42.5137 10.6359 42.1854 10.8232 41.9206C11.0104 41.6558 11.2951 41.476 11.6147 41.4209V41.4194ZM12.5259 46.7752L43.6775 41.4762C43.9976 41.4218 44.3261 41.4968 44.5909 41.6846C44.8557 41.8725 45.0351 42.1578 45.0896 42.4778V42.4833C45.1439 42.8033 45.069 43.1319 44.8811 43.3967C44.6933 43.6615 44.408 43.8408 44.0879 43.8953L12.9373 49.1963C12.6173 49.2507 12.2887 49.1757 12.0239 48.9879C11.7591 48.8 11.5797 48.5147 11.5253 48.1947V48.1893C11.4707 47.8693 11.5455 47.5407 11.7331 47.2758C11.9208 47.0109 12.2059 46.8314 12.5259 46.7767V46.7752ZM13.4371 52.1325L29.9827 49.3173C30.1412 49.2903 30.3034 49.2948 30.4601 49.3305C30.6168 49.3662 30.765 49.4324 30.8961 49.5254C31.0272 49.6184 31.1388 49.7363 31.2243 49.8723C31.3099 50.0084 31.3678 50.16 31.3948 50.3184V50.3244C31.4491 50.6444 31.3742 50.973 31.1863 51.2378C30.9985 51.5026 30.7132 51.6819 30.3931 51.7364L13.8476 54.5516C13.5275 54.606 13.199 54.531 12.9342 54.3432C12.6694 54.1554 12.49 53.8701 12.4355 53.55V53.5446C12.3812 53.2245 12.4561 52.896 12.644 52.6312C12.8318 52.3664 13.1171 52.187 13.4371 52.1325Z" fill="#C9C9C9"/>
    <path fill-rule="evenodd" clip-rule="evenodd" d="M42.262 62.2899C40.7664 62.5444 39.2289 62.3496 37.8439 61.7303C36.459 61.1109 35.2888 60.0948 34.4813 58.8104C33.6739 57.526 33.2654 56.031 33.3077 54.5144C33.3499 52.9979 33.8408 51.5279 34.7185 50.2904C35.5961 49.0529 36.821 48.1035 38.2382 47.5621C39.6555 47.0207 41.2014 46.9118 42.6806 47.2491C44.1598 47.5863 45.5057 48.3546 46.5482 49.4568C47.5907 50.559 48.283 51.9456 48.5375 53.4412C48.7064 54.4343 48.6781 55.4509 48.4542 56.4331C48.2303 57.4152 47.8151 58.3436 47.2324 59.1653C46.6496 59.9869 45.9108 60.6858 45.0579 61.2219C44.2051 61.758 43.2551 62.121 42.262 62.2899ZM39.9007 48.4114C38.6517 48.6238 37.4938 49.2019 36.5734 50.0724C35.653 50.943 35.0114 52.0669 34.7298 53.3021C34.4481 54.5373 34.5391 55.8283 34.9912 57.0118C35.4433 58.1952 36.2362 59.2181 37.2696 59.9509C38.303 60.6838 39.5305 61.0937 40.7969 61.1289C42.0633 61.1641 43.3117 60.823 44.3842 60.1486C45.4568 59.4743 46.3052 58.4971 46.8223 57.3405C47.3394 56.184 47.502 54.9001 47.2894 53.6511C47.0039 51.977 46.0652 50.4848 44.6797 49.5026C43.2942 48.5204 41.5754 48.1286 39.9012 48.4134L39.9007 48.4114ZM41.975 60.3173C40.8707 60.5051 39.7355 60.3612 38.7129 59.9038C37.6903 59.4464 36.8264 58.6961 36.2302 57.7477C35.6341 56.7993 35.3325 55.6954 35.3638 54.5756C35.395 53.4559 35.7575 52.3705 36.4055 51.4568C37.0536 50.5431 37.958 49.842 39.0044 49.4423C40.0509 49.0425 41.1924 48.9621 42.2845 49.2111C43.3767 49.4601 44.3705 50.0273 45.1403 50.8411C45.9101 51.6549 46.4213 52.6787 46.6093 53.783C46.7344 54.5166 46.7137 55.2677 46.5484 55.9933C46.3831 56.7188 46.0764 57.4047 45.6459 58.0118C45.2154 58.6188 44.6694 59.135 44.0393 59.5309C43.4092 59.9269 42.7073 60.1947 41.9736 60.3193L41.975 60.3173ZM40.2405 50.1227C39.3286 50.2779 38.4832 50.6999 37.8112 51.3355C37.1392 51.9711 36.6708 52.7917 36.4652 53.6935C36.2595 54.5953 36.3259 55.5378 36.656 56.4019C36.986 57.266 37.5648 58.0128 38.3193 58.5479C39.0738 59.083 39.97 59.3824 40.8946 59.4081C41.8192 59.4339 42.7307 59.1849 43.5138 58.6926C44.2969 58.2004 44.9164 57.4869 45.294 56.6426C45.6717 55.7982 45.7904 54.8608 45.6353 53.949C45.5321 53.3435 45.3107 52.7643 44.9836 52.2445C44.6566 51.7246 44.2303 51.2743 43.7292 50.9192C43.2281 50.5641 42.662 50.3111 42.0631 50.1748C41.4643 50.0385 40.8444 50.0215 40.239 50.1247L40.2405 50.1227Z" fill="#FFD58C"/>
    <path fill-rule="evenodd" clip-rule="evenodd" d="M41.9923 0L85.0572 12.8566L68.3852 68.7016L25.3203 55.845L41.9923 0Z" fill="#EAEAEA"/>
    <path fill-rule="evenodd" clip-rule="evenodd" d="M55.5786 12.293L66.9343 15.6827C67.2399 15.7801 67.495 15.9936 67.6449 16.2773C67.7947 16.5609 67.8272 16.892 67.7355 17.1994C67.6437 17.5067 67.435 17.7658 67.1542 17.9209C66.8734 18.076 66.543 18.1147 66.234 18.0287L54.8783 14.6386C54.7203 14.596 54.5725 14.5223 54.4435 14.4216C54.3145 14.321 54.207 14.1956 54.1274 14.0527C54.0477 13.9099 53.9974 13.7525 53.9796 13.5899C53.9617 13.4273 53.9767 13.2627 54.0235 13.106C54.0703 12.9493 54.148 12.8035 54.2521 12.6773C54.3562 12.5511 54.4845 12.447 54.6294 12.3713C54.7744 12.2955 54.9331 12.2495 55.0961 12.2361C55.2591 12.2226 55.4232 12.242 55.5786 12.293ZM43.7132 17.5076L73.9921 26.5459C74.1462 26.5919 74.2897 26.6677 74.4144 26.7692C74.5391 26.8706 74.6427 26.9956 74.7191 27.1371C74.7955 27.2785 74.8433 27.4336 74.8597 27.5935C74.8762 27.7535 74.861 27.9151 74.8149 28.0691V28.0745C74.722 28.3856 74.5093 28.647 74.2237 28.8013C73.9381 28.9556 73.6029 28.9902 73.2918 28.8974L43.0124 19.8591C42.7013 19.7661 42.4399 19.5535 42.2856 19.2678C42.1313 18.9822 42.0967 18.647 42.1895 18.3359V18.3304C42.2355 18.1764 42.3115 18.0328 42.4129 17.9081C42.5144 17.7834 42.6395 17.6798 42.7809 17.6034C42.9224 17.527 43.0776 17.4792 43.2375 17.4628C43.3975 17.4463 43.5591 17.4616 43.7132 17.5076ZM42.1589 22.7133L72.4378 31.7516C72.5919 31.7976 72.7354 31.8734 72.8601 31.9748C72.9848 32.0763 73.0884 32.2013 73.1648 32.3427C73.2412 32.4842 73.289 32.6393 73.3054 32.7992C73.3219 32.9592 73.3067 33.1208 73.2606 33.2748V33.2802C73.1681 33.5914 72.9558 33.8532 72.6703 34.0078C72.3849 34.1625 72.0497 34.1975 71.7384 34.105L41.4571 25.0667C41.146 24.9738 40.8846 24.7611 40.7303 24.4755C40.576 24.1899 40.5414 23.8546 40.6343 23.5435V23.5381C40.68 23.3837 40.7558 23.2399 40.8573 23.1149C40.9587 22.9898 41.0839 22.886 41.2255 22.8094C41.3671 22.7328 41.5225 22.6849 41.6826 22.6684C41.8428 22.6519 42.0047 22.6671 42.1589 22.7133ZM39.7571 30.7589L70.036 39.7972C70.19 39.8432 70.3335 39.919 70.4583 40.0204C70.583 40.1219 70.6865 40.2469 70.763 40.3883C70.8394 40.5298 70.8872 40.6849 70.9036 40.8448C70.9201 41.0047 70.9048 41.1663 70.8588 41.3204V41.3258C70.7659 41.6369 70.5532 41.8983 70.2676 42.0526C69.982 42.2069 69.6467 42.2415 69.3356 42.1487L39.0563 33.1103C38.902 33.0645 38.7583 32.9887 38.6333 32.8872C38.5084 32.7858 38.4047 32.6607 38.3281 32.5191C38.2515 32.3776 38.2036 32.2223 38.1871 32.0622C38.1706 31.9021 38.1859 31.7404 38.2319 31.5862V31.5807C38.278 31.4266 38.3541 31.283 38.4557 31.1583C38.5573 31.0335 38.6825 30.93 38.8242 30.8537C38.9658 30.7774 39.1211 30.7297 39.2812 30.7134C39.4413 30.6972 39.603 30.7126 39.7571 30.7589ZM38.2028 35.9646L68.4817 45.0029C68.6357 45.0488 68.7792 45.1247 68.904 45.2261C69.0287 45.3275 69.1323 45.4526 69.2087 45.594C69.2851 45.7355 69.3329 45.8906 69.3493 46.0505C69.3658 46.2104 69.3505 46.372 69.3045 46.5261V46.5315C69.2586 46.6856 69.1827 46.8291 69.0813 46.9538C68.9799 47.0785 68.8548 47.1821 68.7134 47.2585C68.5719 47.3349 68.4168 47.3827 68.2569 47.3991C68.097 47.4156 67.9354 47.4004 67.7813 47.3543L37.5024 38.316C37.1914 38.2231 36.93 38.0104 36.7757 37.7248C36.6213 37.4392 36.5868 37.1039 36.6796 36.7928V36.7874C36.7725 36.4763 36.9852 36.2149 37.2708 36.0606C37.5565 35.9063 37.8917 35.8717 38.2028 35.9646ZM36.6485 41.1702L52.7298 45.9714C52.8839 46.0174 53.0274 46.0932 53.1521 46.1947C53.2768 46.2961 53.3804 46.4211 53.4568 46.5625C53.5332 46.704 53.581 46.8591 53.5974 47.019C53.6139 47.179 53.5987 47.3406 53.5526 47.4946V47.5C53.5067 47.6541 53.4308 47.7976 53.3294 47.9223C53.228 48.0471 53.103 48.1506 52.9615 48.227C52.8201 48.3034 52.665 48.3512 52.505 48.3677C52.3451 48.3841 52.1835 48.3689 52.0295 48.3229L35.9482 43.5217C35.6371 43.4288 35.3757 43.2161 35.2214 42.9305C35.0671 42.6448 35.0325 42.3096 35.1253 41.9985V41.9931C35.2182 41.682 35.4309 41.4206 35.7165 41.2663C36.0022 41.112 36.3374 41.0774 36.6485 41.1702Z" fill="#C9C9C9"/>
    <path fill-rule="evenodd" clip-rule="evenodd" d="M57.9968 63.0392C56.5429 62.6054 55.2504 61.7501 54.2827 60.5817C53.3149 59.4132 52.7154 57.984 52.5599 56.4749C52.4044 54.9657 52.7 53.4443 53.4092 52.1031C54.1184 50.7619 55.2094 49.6611 56.5443 48.94C57.8791 48.2188 59.3978 47.9097 60.9083 48.0518C62.4189 48.1938 63.8533 48.7806 65.0304 49.7379C66.2074 50.6952 67.0741 51.98 67.5209 53.4299C67.9676 54.8798 67.9744 56.4297 67.5403 57.8834C66.9583 59.8326 65.626 61.4708 63.8362 62.4376C62.0465 63.4045 59.946 63.6209 57.9968 63.0392ZM62.0235 49.5514C60.8096 49.1889 59.5155 49.1946 58.3048 49.5677C57.0941 49.9408 56.0212 50.6645 55.2219 51.6474C54.4225 52.6302 53.9325 53.828 53.8139 55.0893C53.6953 56.3506 53.9534 57.6187 54.5555 58.7333C55.1576 59.848 56.0767 60.759 57.1966 61.3513C58.3165 61.9436 59.5868 62.1904 60.847 62.0607C62.1072 61.931 63.3007 61.4305 64.2764 60.6225C65.2522 59.8145 65.9664 58.7353 66.3288 57.5214C66.8148 55.8936 66.6342 54.1394 65.8268 52.6447C65.0194 51.15 63.6513 50.0373 62.0235 49.5514ZM58.6107 61.1446C57.5371 60.8242 56.5827 60.1926 55.8681 59.3297C55.1535 58.4669 54.7109 57.4115 54.5961 56.297C54.4813 55.1826 54.6996 54.0591 55.2233 53.0687C55.7471 52.0783 56.5527 51.2655 57.5384 50.733C58.5242 50.2005 59.6456 49.9722 60.7611 50.0771C61.8765 50.182 62.9358 50.6153 63.8049 51.3222C64.6741 52.0291 65.3141 52.9779 65.6441 54.0485C65.974 55.1192 65.9791 56.2636 65.6586 57.3372C65.2287 58.7766 64.2447 59.9863 62.923 60.7003C61.6014 61.4143 60.0502 61.5741 58.6107 61.1446ZM61.5691 51.236C60.6828 50.9714 59.7379 50.9754 58.8539 51.2478C57.9699 51.5202 57.1865 52.0485 56.6028 52.7661C56.0191 53.4837 55.6613 54.3583 55.5747 55.2792C55.4881 56.2002 55.6765 57.1261 56.1161 57.94C56.5558 58.7538 57.2269 59.419 58.0446 59.8514C58.8623 60.2839 59.7899 60.4641 60.71 60.3693C61.6301 60.2746 62.5015 59.9091 63.2139 59.319C63.9263 58.729 64.4478 57.941 64.7123 57.0547C65.067 55.8662 64.9351 54.5856 64.3456 53.4945C63.7562 52.4033 62.7575 51.5909 61.5691 51.236Z" fill="#FFD58C"/>
    <path d="M64.0853 2.00195H19.1406V60.2819H64.0853V2.00195Z" fill="#F2F2F2"/>
    <path fill-rule="evenodd" clip-rule="evenodd" d="M35.6765 9.88916H47.5202C47.8449 9.88916 48.1564 10.0182 48.386 10.2478C48.6156 10.4774 48.7446 10.7888 48.7446 11.1135V11.119C48.7446 11.4437 48.6156 11.7551 48.386 11.9847C48.1564 12.2143 47.8449 12.3433 47.5202 12.3433H35.6765C35.3518 12.3433 35.0404 12.2143 34.8108 11.9847C34.5812 11.7551 34.4522 11.4437 34.4522 11.119V11.113C34.4523 10.7884 34.5814 10.4771 34.811 10.2476C35.0406 10.0181 35.3519 9.88916 35.6765 9.88916ZM25.7986 18.2854H57.3982C57.7229 18.2854 58.0343 18.4144 58.2639 18.644C58.4935 18.8736 58.6225 19.1851 58.6225 19.5098V19.5152C58.6225 19.8399 58.4935 20.1514 58.2639 20.381C58.0343 20.6106 57.7229 20.7396 57.3982 20.7396H25.7986C25.4739 20.7396 25.1624 20.6106 24.9328 20.381C24.7032 20.1514 24.5742 19.8399 24.5742 19.5152V19.5093C24.5743 19.1847 24.7034 18.8734 24.933 18.6439C25.1626 18.4143 25.474 18.2854 25.7986 18.2854ZM25.7986 23.7183H57.3982C57.7229 23.7183 58.0343 23.8473 58.2639 24.0769C58.4935 24.3065 58.6225 24.6179 58.6225 24.9427V24.9481C58.6225 25.2728 58.4935 25.5842 58.2639 25.8139C58.0343 26.0435 57.7229 26.1725 57.3982 26.1725H25.7986C25.4739 26.1725 25.1624 26.0435 24.9328 25.8139C24.7032 25.5842 24.5742 25.2728 24.5742 24.9481V24.9422C24.5743 24.6175 24.7034 24.3062 24.933 24.0767C25.1626 23.8472 25.474 23.7183 25.7986 23.7183ZM25.7986 32.1146H57.3982C57.7229 32.1146 58.0343 32.2436 58.2639 32.4732C58.4935 32.7028 58.6225 33.0142 58.6225 33.3389V33.3444C58.6225 33.6691 58.4935 33.9805 58.2639 34.2101C58.0343 34.4397 57.7229 34.5687 57.3982 34.5687H25.7986C25.4739 34.5687 25.1624 34.4397 24.9328 34.2101C24.7032 33.9805 24.5742 33.6691 24.5742 33.3444V33.3384C24.5743 33.0138 24.7034 32.7025 24.933 32.473C25.1626 32.2435 25.474 32.1146 25.7986 32.1146ZM25.7986 37.5474H57.3982C57.7229 37.5474 58.0343 37.6764 58.2639 37.906C58.4935 38.1357 58.6225 38.4471 58.6225 38.7718V38.7772C58.6225 39.102 58.4935 39.4134 58.2639 39.643C58.0343 39.8726 57.7229 40.0016 57.3982 40.0016H25.7986C25.4739 40.0016 25.1624 39.8726 24.9328 39.643C24.7032 39.4134 24.5742 39.102 24.5742 38.7772V38.7713C24.5743 38.4467 24.7034 38.1354 24.933 37.9059C25.1626 37.6764 25.474 37.5474 25.7986 37.5474ZM25.7986 42.9803H42.5812C42.906 42.9803 43.2174 43.1093 43.447 43.3389C43.6766 43.5685 43.8056 43.8799 43.8056 44.2047V44.2101C43.8056 44.5348 43.6766 44.8462 43.447 45.0759C43.2174 45.3055 42.906 45.4345 42.5812 45.4345H25.7986C25.4739 45.4345 25.1624 45.3055 24.9328 45.0759C24.7032 44.8462 24.5742 44.5348 24.5742 44.2101V44.2042C24.5743 43.8795 24.7034 43.5682 24.933 43.3387C25.1626 43.1092 25.474 42.9803 25.7986 42.9803Z" fill="#C9C9C9"/>
    <path fill-rule="evenodd" clip-rule="evenodd" d="M52.5106 57.8275C50.9934 57.8275 49.5104 57.3777 48.2489 56.5348C46.9875 55.6919 46.0043 54.4939 45.4237 53.0923C44.8432 51.6906 44.6913 50.1483 44.9872 48.6603C45.2832 47.1724 46.0138 45.8056 47.0866 44.7328C48.1593 43.66 49.5261 42.9295 51.0141 42.6335C52.5021 42.3375 54.0444 42.4894 55.446 43.07C56.8477 43.6506 58.0457 44.6337 58.8885 45.8952C59.7314 47.1566 60.1813 48.6397 60.1813 50.1568C60.1813 52.1912 59.3731 54.1423 57.9346 55.5808C56.4961 57.0194 54.545 57.8275 52.5106 57.8275ZM52.5106 43.7515C51.2437 43.7514 50.0052 44.1269 48.9518 44.8307C47.8984 45.5345 47.0773 46.5348 46.5924 47.7052C46.1076 48.8757 45.9806 50.1636 46.2277 51.4061C46.4748 52.6487 47.0848 53.7901 47.9806 54.6859C48.8764 55.5818 50.0177 56.1919 51.2603 56.4391C52.5028 56.6862 53.7907 56.5594 54.9612 56.0746C56.1316 55.5898 57.1321 54.7689 57.8359 53.7155C58.5398 52.6621 58.9154 51.4237 58.9154 50.1568C58.9154 48.4581 58.2407 46.8289 57.0395 45.6277C55.8384 44.4265 54.2093 43.7516 52.5106 43.7515ZM52.5565 55.8366C51.4362 55.8366 50.341 55.5044 49.4095 54.882C48.4779 54.2596 47.7519 53.3749 47.3232 52.3398C46.8944 51.3048 46.7823 50.1658 47.0008 49.067C47.2194 47.9682 47.7589 46.9589 48.5511 46.1667C49.3433 45.3745 50.3526 44.835 51.4514 44.6165C52.5502 44.3979 53.6892 44.5101 54.7242 44.9388C55.7593 45.3675 56.6439 46.0936 57.2664 47.0251C57.8888 47.9566 58.221 49.0518 58.221 50.1721C58.221 51.6744 57.6242 53.1152 56.5619 54.1775C55.4996 55.2398 54.0588 55.8366 52.5565 55.8366ZM52.5565 45.4959C51.6315 45.4959 50.7273 45.7702 49.9583 46.2841C49.1892 46.798 48.5898 47.5284 48.2358 48.3829C47.8818 49.2375 47.7892 50.1778 47.9696 51.085C48.1501 51.9922 48.5955 52.8255 49.2496 53.4796C49.9036 54.1336 50.7369 54.579 51.6441 54.7595C52.5513 54.9399 53.4916 54.8473 54.3462 54.4933C55.2008 54.1394 55.9312 53.5399 56.4451 52.7709C56.9589 52.0018 57.2332 51.0976 57.2332 50.1726C57.2333 49.5584 57.1124 48.9503 56.8774 48.3828C56.6424 47.8154 56.2979 47.2998 55.8636 46.8655C55.4293 46.4312 54.9137 46.0868 54.3463 45.8518C53.7788 45.6168 53.1707 45.4958 52.5565 45.4959Z" fill="#FA980B"/>
    <path fill-rule="evenodd" clip-rule="evenodd" d="M39.8743 52.5895C39.4715 52.6178 39.0676 52.5505 38.6957 52.393C38.3238 52.2356 37.9944 51.9926 37.7343 51.6837C37.4567 51.3691 37.4804 52.6018 36.9109 52.754C36.3513 52.9021 36.0466 52.3011 35.7997 52.4245C35.5527 52.548 35.3487 54.6471 34.8529 54.6471C34.5521 54.6471 34.6187 54.21 34.4182 53.7931C34.3911 53.7368 33.8255 57.5695 32.5908 57.5695C31.768 57.5695 30.5742 55.7998 30.5742 53.5773C30.5742 49.8731 33.9144 50.3847 33.9144 50.3847C33.9144 50.3847 33.908 48.4324 33.949 47.4031C33.99 46.3738 33.7846 44.9336 34.7723 44.9336C35.7601 44.9336 36.1306 49.0907 36.0481 49.3787C36.0257 49.4439 35.9813 49.4994 35.9225 49.5354C35.8636 49.5714 35.7941 49.5858 35.7258 49.576C35.6575 49.5662 35.5947 49.5329 35.5483 49.4818C35.502 49.4308 35.4749 49.3651 35.4717 49.2962C35.4678 48.4966 35.3287 47.7034 35.0603 46.9502C34.6489 45.6744 34.4839 46.6622 34.4429 47.4031C34.4212 47.7982 34.434 49.2468 34.4824 50.5314C34.9363 51.5326 34.6108 52.792 34.6899 52.713C34.9778 52.4245 35.0193 51.4367 35.5952 51.3548C36.1711 51.2728 35.9705 52.101 36.7065 51.8896C37.2497 51.7336 36.8299 50.367 37.4063 50.367C37.9827 50.367 37.8903 50.933 38.2296 51.2723C38.888 51.9306 39.575 51.8556 40.0408 51.9721C40.1226 51.9942 40.1924 52.0479 40.2347 52.1214C40.2769 52.1949 40.2883 52.2822 40.2662 52.364C40.2441 52.4459 40.1905 52.5157 40.117 52.5579C40.0435 52.6002 39.9562 52.6116 39.8743 52.5895ZM33.7055 51.1849C33.2526 51.0199 31.6425 51.2723 31.3546 53.5358C31.1101 55.4551 32.0954 56.4582 32.5893 56.4582C33.0832 56.4582 33.8651 53.4227 33.9475 52.6819C33.8172 52.3812 33.6165 52.1162 33.3623 51.9094C33.145 51.7681 33.2709 51.2387 33.5598 51.4199C33.7051 51.5251 33.8283 51.6579 33.9224 51.8106C33.907 51.457 33.8754 51.2466 33.706 51.1849H33.7055Z" fill="#545454"/>
</svg>
