<svg width="50" height="50" viewBox="0 0 50 50" fill="none" xmlns="http://www.w3.org/2000/svg">
    <rect x="0.5" y="0.5" width="49" height="49" rx="24.5" fill="white" stroke="#E3E3E3"/>
    <path d="M21.3315 37.969L21.7921 37.8405C22.2351 37.7169 22.4939 37.2583 22.3701 36.8162L17.1038 18.0085C17.0295 17.7431 16.8526 17.518 16.612 17.3827C16.3714 17.2475 16.0868 17.2132 15.8208 17.2874L15.7613 17.3039C15.2075 17.4584 14.8839 18.0317 15.0387 18.5844L20.3051 37.3921C20.4289 37.8342 20.8884 38.0925 21.3315 37.969Z" fill="url(#paint0_linear)"/>
    <path d="M39.8751 24.8258C38.2051 23.9948 36.6601 22.934 35.2854 21.6746C35.1698 21.5691 35.1246 21.407 35.1689 21.257C35.8501 18.6854 36.3559 16.0706 36.683 13.4307C36.7348 12.9916 36.4975 12.8625 36.2473 13.1638C31.3384 19.0228 22.8447 12.0919 17.7891 17.4171C17.8498 17.5305 17.8975 17.6503 17.9314 17.7744L21.3479 29.9831C26.4121 24.7225 34.8756 31.6104 39.7759 25.7643C40.0261 25.4629 40.0736 24.9119 39.8751 24.8258Z" fill="#FA7D08"/>
    <defs>
        <linearGradient id="paint0_linear" x1="18.7005" y1="17.249" x2="18.7005" y2="37.9998" gradientUnits="userSpaceOnUse">
            <stop stop-color="#515151"/>
            <stop offset="0.21875" stop-color="#6A6A6A"/>
            <stop offset="0.427083" stop-color="#515151"/>
            <stop offset="1" stop-color="#121212"/>
        </linearGradient>
    </defs>
</svg>
