<svg width="23" height="14" viewBox="0 0 23 14" fill="none" xmlns="http://www.w3.org/2000/svg">
<path fill-rule="evenodd" clip-rule="evenodd" d="M22.4226 2.4424L11.7462 13.1756C11.637 13.2667 11.5015 13.3164 11.3617 13.3164C11.222 13.3164 11.0864 13.2667 10.9773 13.1756L0.300877 2.4424C0.212791 2.34964 0.16358 2.22412 0.164066 2.09346C0.164553 1.9628 0.214697 1.83769 0.303472 1.74565L2.81526 -0.857078C2.90406 -0.949097 3.02421 -1.0005 3.14929 -0.999996C3.27437 -0.999488 3.39413 -0.947106 3.48224 -0.854368L11.3617 7.06665L19.2412 -0.854122C19.3293 -0.946859 19.4491 -0.999242 19.5742 -0.99975C19.6992 -1.00026 19.8194 -0.948851 19.9082 -0.856832L22.42 1.74589C22.5087 1.83793 22.5588 1.96298 22.5593 2.09359C22.5598 2.22419 22.5106 2.34965 22.4226 2.4424Z" fill="white"/>
</svg>
