<svg width="66" height="67" viewBox="0 0 66 67" fill="none" xmlns="http://www.w3.org/2000/svg">
    <rect x="0.5" y="2.5" width="64" height="64" rx="32" fill="white" stroke="#E3E3E3"/>
    <path d="M28.2471 22.6419H36.5817C37.7752 19.949 39.8741 17.7715 39.8916 17.7361C40.2264 17.4215 40.3157 16.9496 40.1371 16.5227C39.9586 16.0958 39.5569 15.8262 39.1105 15.8262C37.1017 15.8262 36.008 16.5452 35.1375 17.1294C34.3563 17.6687 33.7537 18.0731 32.4144 18.0731C31.0752 18.0731 30.4726 17.6687 29.6914 17.1294C28.8209 16.5452 27.7272 15.8262 25.7184 15.8262C25.272 15.8262 24.8702 16.0958 24.6917 16.5227C24.5131 16.9496 24.6024 17.4215 24.9372 17.7361C24.9548 17.7715 27.0536 19.949 28.2471 22.6419Z" fill="url(#paint0_linear)"/>
    <path d="M40.3008 50.8032V53.0501C40.3008 53.6706 40.8005 54.1736 41.4168 54.1736H54.8833C55.4996 54.1736 55.9993 53.6706 55.9993 53.0501V50.8032C55.9993 50.1827 55.4996 49.6797 54.8833 49.6797H41.4168C40.8005 49.6797 40.3008 50.1827 40.3008 50.8032Z" fill="#FA7D08"/>
    <path d="M55.9993 46.3099V44.0629C55.9993 43.4425 55.4996 42.9395 54.8833 42.9395H41.4168C40.8005 42.9395 40.3008 43.4425 40.3008 44.0629V46.3099C40.3008 46.9303 40.8005 47.4333 41.4168 47.4333H54.8833C55.4996 47.4333 55.9993 46.9303 55.9993 46.3099Z" fill="#FA7D08"/>
    <path d="M40.1594 33.9963C37.972 31.8392 36.1864 30.0117 35.8293 27.1356H36.8784C37.5033 27.1356 37.9944 26.6413 37.9944 26.0121C37.9944 25.383 37.5033 24.8887 36.8784 24.8887H27.9503C27.3253 24.8887 26.8343 25.383 26.8343 26.0121C26.8343 26.6413 27.3253 27.1356 27.9503 27.1356H28.9994C28.6422 30.0117 26.8566 31.8392 24.6692 33.9963C21.4998 37.1195 17.9062 40.6697 17.9062 48.7812C17.9509 51.7471 20.4731 54.1738 23.4863 54.1738H38.1997C38.0747 53.8211 37.9944 53.4458 37.9944 53.0504V44.0626C37.9944 42.2044 39.4965 40.6922 41.3424 40.6922H45.3399C43.9896 37.7786 41.9867 35.8013 40.1594 33.9963ZM32.4143 40.6922C34.2605 40.6922 35.7624 42.2041 35.7624 44.0626C35.7624 45.5253 34.8265 46.7607 33.5303 47.2261V48.5565C33.5303 49.1775 33.0312 49.6799 32.4143 49.6799C31.7975 49.6799 31.2983 49.1775 31.2983 48.5565V47.2261C30.0021 46.7608 29.0663 45.5253 29.0663 44.0626C29.0663 43.4416 29.5655 42.9391 30.1823 42.9391C30.7992 42.9391 31.2983 43.4416 31.2983 44.0626C31.2983 44.6824 31.7986 45.1861 32.4143 45.1861C33.0301 45.1861 33.5303 44.6824 33.5303 44.0626C33.5303 43.4427 33.0301 42.9391 32.4143 42.9391C30.5682 42.9391 29.0663 41.4272 29.0663 39.5687C29.0663 38.1059 30.0021 36.8706 31.2983 36.4052V35.0748C31.2983 34.4538 31.7975 33.9513 32.4143 33.9513C33.0312 33.9513 33.5303 34.4538 33.5303 35.0748V36.4052C34.8265 36.8705 35.7624 38.1059 35.7624 39.5687C35.7624 40.1897 35.2632 40.6922 34.6463 40.6922C34.0295 40.6922 33.5303 40.1897 33.5303 39.5687C33.5303 38.9488 33.0301 38.4452 32.4143 38.4452C31.7986 38.4452 31.2983 38.9488 31.2983 39.5687C31.2983 40.1886 31.7986 40.6922 32.4143 40.6922Z" fill="url(#paint1_linear)"/>
    <path d="M66 10.5C66 16.2986 61.2986 21 55.5 21C49.7014 21 45 16.2986 45 10.5C45 4.70137 49.7014 0 55.5 0C61.2986 0 66 4.70137 66 10.5Z" fill="#222628"/>
    <path d="M61.0214 5.60547L53.937 12.6872L51.0193 9.77161L49.5625 11.2284L53.937 15.6049L62.4776 7.06224L61.0214 5.60547Z" fill="white"/>
    <defs>
        <linearGradient id="paint0_linear" x1="32.4144" y1="15.8262" x2="32.4144" y2="22.6419" gradientUnits="userSpaceOnUse">
            <stop stop-color="#515151"/>
            <stop offset="0.21875" stop-color="#6A6A6A"/>
            <stop offset="0.427083" stop-color="#515151"/>
            <stop offset="1" stop-color="#121212"/>
        </linearGradient>
        <linearGradient id="paint1_linear" x1="31.6231" y1="24.8887" x2="31.6231" y2="54.1738" gradientUnits="userSpaceOnUse">
            <stop stop-color="#515151"/>
            <stop offset="0.21875" stop-color="#6A6A6A"/>
            <stop offset="0.427083" stop-color="#515151"/>
            <stop offset="1" stop-color="#121212"/>
        </linearGradient>
    </defs>
</svg>
