<svg width="14" height="14" viewBox="0 0 14 14" fill="none" xmlns="http://www.w3.org/2000/svg">
    <path d="M5.79803 8.20213C4.46175 6.86585 4.16003 5.52958 4.09196 4.9942C4.07294 4.84616 4.12388 4.69771 4.22978 4.59254L5.31116 3.51164C5.47024 3.35267 5.49847 3.10491 5.37923 2.91423L3.65747 0.240713C3.52556 0.0295658 3.25472 -0.0466392 3.03206 0.0647472L0.268026 1.36651C0.0879717 1.45517 -0.0179341 1.64647 0.00250914 1.84613C0.147337 3.22199 0.747164 6.6042 4.07096 9.92823C7.39475 13.2523 10.7765 13.8519 12.1531 13.9967C12.3527 14.0171 12.544 13.9112 12.6327 13.7312L13.9344 10.9671C14.0454 10.745 13.9697 10.4748 13.7594 10.3427L11.0859 8.6214C10.8953 8.50205 10.6476 8.53007 10.4885 8.68899L9.40761 9.77037C9.30245 9.87627 9.15399 9.92722 9.00596 9.9082C8.47058 9.84013 7.1343 9.5384 5.79803 8.20213Z" fill="#FA7D08"/>
    <path d="M13.5196 7.48276C13.2529 7.48276 13.0368 7.26662 13.0368 7C13.0331 3.66879 10.3335 0.969242 7.00229 0.965517C6.73567 0.965517 6.51953 0.749379 6.51953 0.482759C6.51953 0.216138 6.73567 0 7.00229 0C10.8665 0.00425693 13.9981 3.13577 14.0023 7C14.0023 7.12804 13.9515 7.25083 13.8609 7.34136C13.7704 7.4319 13.6476 7.48276 13.5196 7.48276Z" fill="#FA7D08"/>
</svg>
