<svg width="50" height="50" viewBox="0 0 50 50" fill="none" xmlns="http://www.w3.org/2000/svg">
    <rect x="0.5" y="0.5" width="49" height="49" rx="24.5" fill="white" stroke="#E3E3E3"/>
    <path d="M31.4063 26.0645C30.0833 26.0645 28.6771 25.0436 28.6771 23.1582V21.7936C28.6667 21.7103 28.6042 21.627 28.5 21.5436C26.9375 20.3249 26.0729 18.502 26.1146 16.5332C26.1563 15.0228 26.7396 13.627 27.6979 12.554C27.0417 12.304 26.3542 12.1478 25.6354 12.0645C25.2677 12.0197 24.6875 12.002 24.5 12.002C21.9792 12.002 19.6146 12.9811 17.8229 14.7728C17.0521 15.5436 16.4271 16.4707 15.9896 17.5124C15.4167 18.752 15.125 20.0749 15.125 21.429C15.125 21.5853 15.1354 21.7415 15.1458 21.8978V21.9395C15.0833 22.3561 14.9375 22.7415 14.7396 23.0645L12.4375 26.3978C12.1458 26.8457 12 27.0957 12 27.377C12 28.0853 12.5833 28.6686 13.2917 28.6686H15.1875V31.5645C15.1875 32.8457 16.2292 33.877 17.5 33.877C17.75 33.877 17.9896 33.8353 18.1563 33.7832L20.3854 33.1686V36.2207C20.3854 36.6478 20.7396 37.002 21.1667 37.002H30.0208C30.4479 37.002 30.8021 36.6478 30.8021 36.2207V31.0957C30.8021 29.8561 31.1458 28.5957 31.7917 27.4603C32.1563 27.0228 32.4792 26.554 32.7604 26.0645H31.4063Z" fill="url(#paint0_linear)"/>
    <path d="M34.4883 22.5947V23.3447C34.4883 23.9801 33.9674 24.501 33.3216 24.501H31.4049C30.8424 24.501 30.2383 24.0843 30.2383 23.1572V22.5947H34.4883Z" fill="black"/>
    <path d="M37.0519 16.6577C37.0519 18.0639 36.4269 19.3764 35.3331 20.2618C34.8956 20.616 34.6144 21.0743 34.5206 21.5535H30.2185C30.1456 21.0847 29.8852 20.6472 29.4581 20.3139C28.3018 19.4077 27.6456 18.0431 27.6768 16.5639C27.7289 14.0847 29.8019 12.0327 32.2914 12.0014C33.5519 11.9702 34.7602 12.4597 35.6664 13.3556C36.5623 14.2306 37.0519 15.4077 37.0519 16.6577Z" fill="#FA7D08"/>
    <defs>
        <linearGradient id="paint0_linear" x1="22.3802" y1="12.002" x2="22.3802" y2="37.002" gradientUnits="userSpaceOnUse">
            <stop stop-color="#515151"/>
            <stop offset="0.21875" stop-color="#6A6A6A"/>
            <stop offset="0.427083" stop-color="#515151"/>
            <stop offset="1" stop-color="#121212"/>
        </linearGradient>
    </defs>
</svg>
