<svg width="32" height="42" viewBox="0 0 32 42" fill="none" xmlns="http://www.w3.org/2000/svg">
    <path fill-rule="evenodd" clip-rule="evenodd" d="M3.5934 18.1371H3.30388C1.48164 18.1371 0 19.5625 0 21.3155V38.8215C0 40.5746 1.48164 42 3.30388 42H28.6961C30.5184 42 32 40.5746 32 38.8215V21.3073C32 19.5543 30.5184 18.1289 28.6961 18.1289H28.611L23.1357 18.1371H9.06865H3.5934ZM17.6349 31.4816C17.6349 31.1949 17.703 31.0229 17.9585 30.8427C18.8015 30.2529 19.2187 29.4337 19.2187 28.4261C19.2017 26.9761 18.1543 25.8129 16.6472 25.518C15.2932 25.2558 13.8542 25.9931 13.2666 27.2464C12.6621 28.5326 13.0623 29.9989 14.2714 30.8591C14.5098 31.0311 14.5695 31.2031 14.5695 31.4653C14.5609 32.7514 14.5609 34.0375 14.5609 35.3236V35.3318C14.5609 36.3968 15.7275 37.1996 16.8941 36.6261C17.388 36.3886 17.669 35.8643 17.6434 35.3318C17.6434 34.0457 17.6434 32.7678 17.6349 31.4816Z" fill="url(#paint0_linear)"/>
    <path d="M15.6084 0C8.71112 0 3.09962 5.39843 3.09962 12.0338V15.2727H8.57488V12.042C8.57488 8.31474 11.7255 5.27556 15.6084 5.27556C19.4828 5.27556 22.6419 8.30654 22.6419 12.042V15.2727H28.1172V12.042C28.1172 5.40663 22.5057 0.00819186 15.6084 0Z" fill="#FA7D08"/>
    <defs>
        <linearGradient id="paint0_linear" x1="16" y1="18.1289" x2="16" y2="42" gradientUnits="userSpaceOnUse">
            <stop stop-color="#515151"/>
            <stop offset="0.21875" stop-color="#6A6A6A"/>
            <stop offset="0.427083" stop-color="#515151"/>
            <stop offset="1" stop-color="#121212"/>
        </linearGradient>
    </defs>
</svg>
