<svg width="93" height="50" fill="none" xmlns="http://www.w3.org/2000/svg">
  <path fill-rule="evenodd" clip-rule="evenodd" d="M38.636 19.331c.123-.093.239-.195.348-.304.24-.212.06-.103.315-.217l.066.592-.68.484-.049-.544v-.01zm-5.49 28.674c.445-.326 1.576-.195 2.267-.347 1.087-.245.994-.544 1.538-1.055.918.447 1.77 1.017 2.533 1.696l-.195.543-.881.12-.011-.049c-.37-.5-.25-.435-1.087-.163-.924.299-4.045.201-4.143-.745h-.021zm7.175.104c-.048-.114-.07 0-.06-.25.017-.087.04-.173.071-.256.044-.108.169-.337.229-.462a1.055 1.055 0 01.7-.679l.545.446c-1.544.945-.897 1.288-1.463 1.2h-.022zm1.55-1.745c.49.397 1.294 0 1.63.457-.374.592-2.109-.104-2.609 1.723 1.153.445 2.827.25 4.154.26a4.346 4.346 0 00-.843-2.065c-.44-.494-1.577-.636-2.332-.353v-.022zm-4.66-.206l.887.597c-.136-.413-.32-.674-.886-.597zm-.755-4.207c.234 2.484.066 1.864.848 3.74l-.581.25c-2.24-1.485-1.12-7.294-2.044-8.104-.272.212-.24-.212-.256.587 0 0 .076.51.087.603l.38 3.614c.316 2.533.354 2.446 1.604 3.723-.337.805-1.158.913-1.957.978-1.038.087-2.076-.157-1.74 1.18-4.984-.109-10.785 0-15.928 0-1.033 0-1.685-.174-1.978.233.358.38 2.267.196 2.886.196H32.64c1.86 0 3.23.935 5.18.098l.294.473 1.42-.228.478-.816c.652.359.935.794 1.924.788 3 0 18.342.174 18.82-.136-.136-.402-.043-.32-.647-.326H45.573l-.201-.543c-.653-2.424-1.43-2-1.631-2.473-.027-1.24.223-7.24-.109-7.788-.495.13-.31.304-.31 1.663V45.8h-1.01c.053-1.343 0-2.772 0-4.12 0-.875.178-3.483-.24-3.76-.305.233-.218.239-.207.798v7.066c-.358.233-.581.157-.94.331-.359.174-.31.326-.598.495-.103-1.75-.044-4.75-.06-6.723v-1.141c0-.544.098-.68-.245-.875-.434.418-.19 1.815-.184 2.467 0 .831 0 1.663.027 2.494.07 1.653.034 3.309-.109 4.957a4.54 4.54 0 01-1.087-.76c.74-.615.913-.626.957-1.17-.838.06-.44.365-1.088.62-1.26-1.157-1.402-2.255-1.57-3.875l-.354-3.739c-.12-1.299-.065-.897-.343-1.087-.25.326-.174.544-.114 1.087l.3 3.087zm2.175-29.196l-1.479-.038c.12.544.484.593 1.778.446.174-.32.723-1.152.407-1.603-.413.141-.456.76-.706 1.195zm-.288 1.484c0-.315.081-.299.26-.478.376-.359.827-.832 1.31-.511-.13.38.066.125-.336.348-.702.397-.767.7-1.234.641zm-3.577-2.522c.543 0 .097 0 .467-.418.212-.228.386-.125.392-.418-.19-.158.298-.213-.36-.147a.751.751 0 00-.374.223.614.614 0 00-.125.76zm3.587-2.14c.577 0 .131.053.425-.289.293-.342.195.033.353-.462-.544-.331-.951.158-.778.75zm4.045 7.88c.495.124.544.228.658.782-.256.305-.386.305-.544.685l-.054-.07-.598-.615c.185-.456.196-.543.544-.783h-.006zM38.86 18l.174-.109.082.24c-.104.228.032.092-.212.358-.245.267-.11.103-.354.223l.31-.712zm4.447-.544a.69.69 0 01.854-.282.951.951 0 01-.593 1.26l-.277-.988.016.01zm-6.322 0c.155-.192.338-.36.543-.5.201.131.283.147.544.321l.19 2.636a13.92 13.92 0 01-1.277-2.457zm1.853-.168a.544.544 0 01-.108.256c-.13.168-.05.054-.218.173 0-.434-.054-.386.326-.429zm.43-.717c-.022.894.186 1.78.603 2.57v-1.56c0-.668.12-.978-.603-1.01zm-1.435 0c.304.288.32.413.875.266l.19-.484-.462-.353a.968.968 0 00-.582.538l-.021.033zm2.038-1.354v.99a1.087 1.087 0 01-.494-.196 1.18 1.18 0 01-.381-.288l.859-.506h.016zm-5.436-1.032l-.386 1.456 1.31.06c0 .701-.446 1.218-.592 1.859l2.816 2.212c-.142-.723-2.642-5.147-3.137-5.576l-.011-.011zm-12.726.875l.266-.245c0 .49 0 .13-.125.256-.364 3.315 3.805-.544 3.153-1.897a.701.701 0 00-1.087-.152c.266.5.185 0 .734.386.049.82-1.289 2.489-1.941 2.608-1.582.3.745-4.521 2.8-4.021.815 2.293-4.67 7.961-3.806 3.065h.006zm21.935 1.282c-.147-.288 0-.342.19-.739.087-.245.233-.465.424-.641l-.614 1.38zm-7.828-1.26l-.305-.256L36.717 17c.25-.13 0 .054.272-.201s.234-.543.788-.788c-.2-.207 0-.044-.239-.18l-.228-.07c-.503-.191-.995-.411-1.474-.658l-.021-.021zM40.3 19.19v-3.56c-.071-.5.035-1.009.299-1.44.195-.38.255-.896.456-1.288l.479.8c-.68.83-.729.477-1 1.059l1.087 1.206c-.234.587-.94 2.783-1.365 3.223h.044zm1.24-7.31l-.49-.125c0 .582 0 .337.125.468.245.435.853 1.212.902 1.744a2.545 2.545 0 00-.902.756l.99 1c-.088.57-.936 2.223-.783 2.489.206-.337.31-.848.62-1.06.608-.413.57.19 1.25-.217-.066-.25-.093 0-.267-.397.19-.473.957-1.94.962-2.326-.434 0-.473.027-.788-.141-.092-.484 1.272-1.125.827-1.968l-2.447-.223zm-19.071.076l.543.62a9.581 9.581 0 011.376-.913c.973-.435 1.185-.141 1.68.342.386.386.782.712 1.201 1.087l4.784 4.517c.419.462.701.967 1.288 1.087.343-.386-.092-.745-.391-1.201l-5.91-9.19c-.255.347-.429.83-.717 1.233-.63.87-2.56 2.272-3.854 2.424v-.005zm11.226-.961c.375-.245 1.283-.479 1.82-.778 0 0 1.333-1.12.87.625-.255.979-3.098 2.25-2.718.153h.028zm3.028-1.718c.244.19.027-.049.2.261 0 .044.072.174.099.234.576 1.266 2.044.95 2.886-.375l.37-.544c.098 1.63.652 2.99.136 4.663-.38 1.218-1.495 2.31-3.131 1.767-1.213-.402-2.273-1.419-3.1-2.006-1.01-.723-1.288-.288-2.032-.598-.055 0-1.028-.945-1.06-1.342l2.082-.315c.081.793.049 1.255.794 1.462.934.266 2.533-.544 2.82-1.457.37-1.168-.33-1.217-.064-1.76v.01zm3.05-1.125c.195 1.408-1.713 2.8-2.355 1.468-.364-.75.403-1.163.767-1.468.696-.598.913-.5 1.587 0zm-17.397 2.223c.935.299 2.31-.848 2.675-1.288.642-.766 0-.201-.152-.81.978-.598 1.49.875-.87 2.174-.457.25-1.397.652-1.924.261-.528-.391.092-1.283.331-1.685-1.63.979-1.38 3.924 1.843 1.674.777-.543 1.789-1.25 2.175-2.244.282-.723.136-1.234-.647-1.261-.544 0-1.223.51-1.555.76-.875.674-2.082 1.75-1.881 2.403l.005.016zM39.23 7.359c.772.26.62.342 1.049.87a2.777 2.777 0 00-.255-1.468 1.522 1.522 0 00-.794.598zm-8.807-1.63c-.859-2.06-1.63-2.794-.756-3.528.435.424 1.175 2.533 1.533 3.32.316.691 1.48 2.843 1.012 3.506-.631 0-1.528-2.674-1.789-3.299zm4.518 1.88c.157-.74-2.305-5.12-2.816-6.75l-.827.228 2.495 5.24c.327.678.479 1.385 1.148 1.282zm2.125-1.027c-.31-.055-.19 0-.375-.207l-1.218-2.641c-.418-1.017-.935-2.104-1.32-3.044.668 0 .706.68.962 1.24.407.88 2.098 4.168 1.951 4.64v.012zM35.06 8.044c.647-.865.32-1.028-.136-1.946-.402-.81-2.348-5.06-2.337-5.364l1.087-.07c.326 1.086 1.087 2.44 1.544 3.559.543 1.364 1.087 3.174 2.212 2.717.5-1.272-1.82-4.228-2.31-6.136 1.778.419 1.99 1.033 2.865 2.25.337.479.728 1 1.087 1.538.152.234.315.5.49.761.082.14.185.265.304.375l.244.223s.05.038.066.06L36.973 8.62c-.212.179-.321.222-.544.39a6.143 6.143 0 01-3.082 1.572c-1.92.456-.865-.077-3.132.7a3.195 3.195 0 00-.543-1.885c-.707-1.555-1.25-4.158-.788-5.979.26.256 1.239 2.718 1.467 3.261.267.625 1.088 3.185 2.028 2.718 1.202-.544-.88-4.218-1.517-5.74-.239-.543-.614-1.277-.804-1.89l.848-.44a39.517 39.517 0 001.761 3.706c1.087 2.065 1.044 3.163 2.36 3.01h.032zM34.467.207h-1.425c-.402.146-1.152.206-1.707.396-3.484 1.223-3.414 4.555-2.462 7.68a9.27 9.27 0 00.614 1.63c.348.696.26 1.163.413 1.87l.696-.158 1.5 1.603c-.353.3-.494.544-.973.729-.228-.75-2.979-4.718-3.599-5.778-.402-.64-.766-1.424-1.777-1.44-1.789-.027-5.545 2.908-4.626 4.663.179.343.603.544.837.756.234.212.5.543.783.788a7.835 7.835 0 00-1.539 2.45c-.446 1.566.435 1.887 1.397 2.474l3.806 2.31c.402.239.962.793 1.38.543-.103-.495-.777-.685-1.206-.951-1.332-.82-2.719-1.527-3.99-2.451 1.45-.913 3.229-2.093 3.435-4.707.446.19.201 0 .544.391.93 1.087 2.718 2.522 3.805 3.566.326.32.479.543.826.87.594.484 1.15 1.012 1.664 1.58-.174.425-.908 1.06-.935 1.5-.076 1.088 1.462-1.744 2.174-1.804.13.707-1.467 2.174-.68 2.044.224-.049.381-.348.577-.62.326-.445.315-.706.859-.788-.185.913-.761.794-.712 1.462.728 0 .495-.603 1.13-.875.218.419.055.076.044.402a.728.728 0 00.06.544c.31-.114.228.054.402-.359.207-.5-.293-1.032-.543-1.358-.25-.327-.087-.06-.403-.267l-.32-.37c-.245-.31-.544-.282-.794-.684-.403-.587-1.827-3.038-2.202-3.32a3.125 3.125 0 011.039-1.088c.592-.462 1 0 1.533.185a17.7 17.7 0 01-.397 1.76c-.202.876.282.637 1.168.686l-.597 1.56a21.439 21.439 0 002.081 1.679c.544.396 1.588 1.396 2.23 1.549l.858-1.087c.479.31.267.494.631.891.544-.228.772-1.527 1.12-2.032l.799.146c.043.767-.364 1.218 0 1.56.375-.114.408-.456.62-.82.149-.342.402-.627.723-.816.348.593-.158 1.141.51 1.326.365-.831-.222-.636.599-1.82.782.049.57.304.293.826-.136.255-.886 1.293-.282 1.146.375-.087.483-.717.663-.989.304-.456-.06-.2.435-.331.206.543.098 1.532.293 1.82.408-.092.326-.179.326-.76 0-1.185-.163-.908-.706-1.663-.294-.408-.06-.381-.783-.468.13-.717-.125-.853-.598-1.277l.962-2.38-.49-.202c-.222-.092-.467-.168-.603-.233.114-.166.217-.339.31-.517.044-.076.066-.146.114-.228l.087-.141.098-.136c.163 1.163 1.425 2.598 2 3.446.718 1.086 1.659 2.108 2.252 3.211-.245.403-.821 1.006-.832 1.484.516.076.712-.434 1.32-1.45-.255-.8-2.658-3.903-3.261-4.762-2.136-2.983-.043-2.853-4.893-3.26a12.371 12.371 0 01-.413-2.43c-.092-1.087.386-1.32-.331-2.37.114-.37.152-.195.32-.543l-1.31-1.652c-3.256-4.93-2.642-3.19-4.941-4.141z" fill="#fff"/>
  <path d="M4.98 26.788H1.92v2.07h3.594v1.283H.344v-7.728h5.175v1.288H1.92v1.843h3.06v1.244z" fill="#fff"/>
  <path d="M12.743 30.141H11.15l-3.104-5.087v5.087H6.453v-7.728h1.593l3.11 5.093v-5.093h1.587v7.728z" fill="#fff"/>
  <path d="M18.793 26.788h-3.061v2.07h3.593v1.283h-5.18v-7.728h5.17v1.288h-3.583v1.843h3.06v1.244z" fill="#fff"/>
  <path d="M23.133 27.31H21.86v2.832h-1.588v-7.729h2.87a3.23 3.23 0 012.11.609 2.098 2.098 0 01.745 1.723c.017.464-.102.923-.343 1.32a2.332 2.332 0 01-1.038.843l1.674 3.157v.076H24.58l-1.446-2.831zm-1.272-1.288h1.315c.338.02.67-.09.93-.304a1.087 1.087 0 00.326-.843 1.163 1.163 0 00-.31-.858 1.273 1.273 0 00-.951-.316h-1.283l-.027 2.32z" fill="#fff"/>
  <path d="M33.335 29.163c-.328.37-.748.646-1.218.799a5.058 5.058 0 01-1.74.283 3.497 3.497 0 01-1.761-.435 2.95 2.95 0 01-1.169-1.272 4.514 4.514 0 01-.418-1.962v-.543a4.835 4.835 0 01.386-2.006c.235-.537.63-.988 1.13-1.293a3.686 3.686 0 013.87.206c.545.492.874 1.176.92 1.908h-1.55a1.533 1.533 0 00-.456-.935 1.49 1.49 0 00-1-.304 1.408 1.408 0 00-1.235.608 3.184 3.184 0 00-.43 1.816v.494a3.053 3.053 0 00.463 1.837 1.576 1.576 0 001.354.62c.46.044.918-.095 1.277-.386V27.25h-1.451v-1.163h3.044l-.016 3.076z" fill="#fff"/>
  <path d="M37.309 25.891l1.63-3.478h1.746l-2.539 4.924v2.804h-1.63v-2.804l-2.54-4.924h1.702l1.631 3.478z" fill="#fff"/>
  <path d="M43.441 27.446h-2.984v-1.234h2.984v1.234z" fill="#fff"/>
  <path d="M48.796 28.114a.826.826 0 00-.32-.695c-.355-.229-.742-.4-1.148-.511a8.198 8.198 0 01-1.31-.544 2.174 2.174 0 01-1.316-1.907 1.842 1.842 0 01.354-1.12 2.3 2.3 0 011.01-.766c.472-.19.977-.285 1.485-.277a3.556 3.556 0 011.479.299c.408.182.757.476 1.005.847.242.37.367.804.36 1.245H48.8a1.043 1.043 0 00-.337-.826 1.375 1.375 0 00-.94-.294 1.49 1.49 0 00-.908.245.783.783 0 00-.32.652.739.739 0 00.38.63c.347.21.722.371 1.114.479.73.178 1.407.524 1.979 1.01a2.012 2.012 0 01.625 1.512 1.858 1.858 0 01-.76 1.57c-.605.4-1.322.59-2.045.544a3.965 3.965 0 01-1.63-.326 2.566 2.566 0 01-1.088-.892 2.276 2.276 0 01-.386-1.32h1.598c0 .853.511 1.282 1.528 1.282.313.02.623-.062.886-.233a.75.75 0 00.299-.604z" fill="#fff"/>
  <path d="M54.16 25.891l1.631-3.478h1.74l-2.533 4.924v2.804h-1.631v-2.804l-2.539-4.924h1.702l1.63 3.478z" fill="#fff"/>
  <path d="M62.137 28.114a.826.826 0 00-.32-.695c-.354-.229-.741-.401-1.147-.511a8.198 8.198 0 01-1.31-.544 2.175 2.175 0 01-1.316-1.907 1.88 1.88 0 01.353-1.12c.26-.346.612-.612 1.017-.766.47-.19.972-.284 1.478-.277a3.556 3.556 0 011.48.299c.419.18.778.479 1.032.858.241.37.366.803.359 1.245H62.17a1.042 1.042 0 00-.337-.826 1.37 1.37 0 00-.935-.294c-.321-.02-.64.066-.908.245a.777.777 0 00-.326.652.739.739 0 00.38.63c.34.208.705.369 1.088.479.73.18 1.41.526 1.984 1.01a2.027 2.027 0 01.62 1.511 1.858 1.858 0 01-.761 1.571c-.604.4-1.322.59-2.044.544a3.965 3.965 0 01-1.631-.327 2.598 2.598 0 01-1.115-.89 2.314 2.314 0 01-.38-1.284h1.598c0 .854.511 1.283 1.528 1.283.312.02.623-.062.886-.234a.75.75 0 00.32-.652z" fill="#fff"/>
  <path d="M70.64 23.701h-2.343v6.44h-1.631v-6.44h-2.338v-1.288h6.295l.017 1.288z" fill="#fff"/>
  <path d="M76.212 26.788h-3.06v2.07h3.593v1.283h-5.186v-7.728h5.175v1.288H73.15v1.843h3.061v1.244z" fill="#fff"/>
  <path d="M79.768 22.413l1.99 5.603 1.973-5.603h2.093v7.728h-1.598v-2.114l.157-3.646-2.087 5.76h-1.087l-2.082-5.755.157 3.641v2.114h-1.593v-7.728h2.077z" fill="#fff"/>
  <path d="M91.23 28.114a.826.826 0 00-.32-.695c-.354-.229-.741-.401-1.148-.511a8.194 8.194 0 01-1.31-.544 2.136 2.136 0 01-1.315-1.908 1.842 1.842 0 01.353-1.12 2.3 2.3 0 011.011-.765c.47-.195.975-.293 1.484-.288a3.556 3.556 0 011.479.298c.408.183.757.477 1.006.848.24.37.366.804.359 1.245h-1.593a1.045 1.045 0 00-.337-.826 1.381 1.381 0 00-.94-.294 1.49 1.49 0 00-.909.245.782.782 0 00-.32.652.739.739 0 00.38.63c.34.208.705.369 1.087.479a4.81 4.81 0 012.017 1.032 2.01 2.01 0 01.625 1.511 1.857 1.857 0 01-.76 1.57c-.604.4-1.322.591-2.045.544a3.965 3.965 0 01-1.63-.326A2.566 2.566 0 0187.288 29a2.277 2.277 0 01-.386-1.32H88.5c0 .853.506 1.282 1.528 1.282.313.02.623-.063.886-.234a.75.75 0 00.315-.614z" fill="#fff"/>
  <path d="M5.617 35.016H4.361l-.212.717h-.766l1.3-3.478h.662l1.305 3.478h-.767l-.266-.717zm-1.087-.582h.87l-.435-1.299-.435 1.3z" fill="#fff"/>
  <path d="M7.659 34.505v1.229h-.718v-3.479h1.36c.237-.006.474.042.69.142a1.088 1.088 0 01.62 1.01 1 1 0 01-.354.832c-.277.21-.62.314-.967.294l-.631-.028zm0-.581H8.3a.642.642 0 00.435-.13.495.495 0 00.147-.381.598.598 0 00-.147-.418.543.543 0 00-.418-.158h-.658v1.087z" fill="#fff"/>
  <path d="M11.217 33.45l.652-1.195h.821l-1.011 1.723 1.038 1.755h-.832l-.668-1.217-.669 1.217h-.837l1.038-1.755-1.01-1.723h.825l.653 1.195z" fill="#fff"/>
  <path d="M15.172 32.255h.723v3.479h-.723v-2.31l-1.392 2.31h-.717v-3.479h.717v2.316l1.392-2.316z" fill="#fff"/>
  <path d="M19.065 32.837h-1.087v2.897h-.718v-2.897h-1.05v-.582h2.833l.022.582z" fill="#fff"/>
  <path d="M21.572 34.24h-1.38v.934h1.63v.576h-2.338v-3.478h2.332v.581h-1.63v.826h1.38l.006.56z" fill="#fff"/>
  <path d="M23.365 34.31h-.413v1.424h-.718v-3.479h.718v1.392h.326l.848-1.392h.875l-1.087 1.63 1.185 1.832h-.837l-.897-1.407z" fill="#fff"/>
  <path d="M28.006 32.836H26.92v2.897h-.718v-2.897h-1.049v-.581h2.833l.021.581z" fill="#fff"/>
  <path d="M29.724 33.897l.631-1.63h.777l-1.217 2.87-.098.184a.89.89 0 01-.826.473h-.25v-.576a.827.827 0 00.184 0 .451.451 0 00.245-.055.369.369 0 00.152-.19l.093-.228-1.224-2.478h.772l.761 1.63z" fill="#fff"/>
  <path d="M32.225 34.505v1.229h-.717v-3.479h1.359c.238-.006.474.042.69.142.188.09.347.23.457.407.106.183.16.392.158.604a.995.995 0 01-.348.804c-.278.21-.62.313-.968.293h-.63zm0-.581h.642c.156.01.31-.036.435-.13a.495.495 0 00.147-.381.576.576 0 00-.153-.418.541.541 0 00-.413-.158h-.658v1.087z" fill="#fff"/>
  <path d="M36.222 35.016h-1.255l-.24.718h-.766l1.3-3.479h.662l1.305 3.479h-.766l-.24-.718zm-1.087-.581h.87l-.435-1.3-.435 1.3z" fill="#fff"/>
  <path d="M41.98 36.587h-.664v-.853h-2.098v.853h-.68l-.038-1.43h.266c.159-.146.272-.334.327-.543.086-.275.138-.56.157-.848l.098-1.532h2.31v2.902h.408l-.087 1.45zm-2.393-1.43h1.327v-2.32h-.886l-.06.913a3.109 3.109 0 01-.38 1.408z" fill="#fff"/>
  <path d="M44.496 32.255h.723v3.479h-.723v-2.31l-1.392 2.31h-.717v-3.479h.717v2.316l1.392-2.316z" fill="#fff"/>
  <path d="M47.556 33.212a.368.368 0 00-.157-.31.67.67 0 00-.408-.114.625.625 0 00-.386.114.354.354 0 00-.147.294h-.717a.848.848 0 01.157-.511c.115-.156.271-.277.452-.348.202-.088.42-.133.641-.13.334-.019.664.073.94.26a.859.859 0 01.343.729.717.717 0 01-.141.435.978.978 0 01-.397.315c.175.05.33.153.446.293a.81.81 0 01.152.506.869.869 0 01-.364.744 1.577 1.577 0 01-.973.278 1.715 1.715 0 01-.685-.13 1.088 1.088 0 01-.462-.354.913.913 0 01-.158-.544h.723a.39.39 0 00.163.316c.122.086.27.13.419.124.16.01.32-.036.45-.13a.401.401 0 00.164-.326.467.467 0 00-.147-.391.653.653 0 00-.43-.12h-.429v-.516h.44c.338 0 .511-.18.511-.484z" fill="#fff"/>
  <path d="M50.824 35.016h-1.256l-.239.718h-.767l1.3-3.479h.663l1.3 3.479h-.762l-.239-.718zm-1.087-.581h.87l-.414-1.283-.456 1.283z" fill="#fff"/>
  <path d="M54.238 32.256h.718v3.478h-.718v-2.31l-1.392 2.31h-.717v-3.478h.718v2.315l1.391-2.315zm.142-.913a.635.635 0 01-.229.51 1.022 1.022 0 01-1.201 0 .63.63 0 01-.229-.51h.49a.304.304 0 00.092.233.408.408 0 00.49 0 .304.304 0 00.092-.233h.495z" fill="#fff"/>
  <path d="M58.414 35.734h-.717v-1.495H56.3v1.49h-.718V32.25h.718v1.408h1.397v-1.403h.717v3.479z" fill="#fff"/>
  <path d="M62.344 32.255h.717v3.479h-.717v-2.31l-1.392 2.31h-.718v-3.479h.718v2.316l1.392-2.316z" fill="#fff"/>
  <path d="M66.514 35.734h-.712v-1.495H64.4v1.49h-.713V32.25h.713v1.408h1.402v-1.403h.712v3.479z" fill="#fff"/>
  <path d="M70.118 34.315h-.414v1.419h-.717v-1.419h-.424l-.756 1.419h-.897l1.087-1.87-1.032-1.63h.891l.777 1.402h.354v-1.38h.717v1.402h.348l.756-1.403h.891l-1.016 1.63 1.087 1.87h-.897l-.755-1.44z" fill="#fff"/>
  <path d="M74.155 34.239h-1.376v.935h1.631v.576h-2.332v-3.478h2.332v.581h-1.63v.826h1.375v.56z" fill="#fff"/>
  <path d="M77.653 35.734h-.718v-1.495h-1.397v1.49h-.718V32.25h.718v1.408h1.397v-1.403h.718v3.479z" fill="#fff"/>
  <path d="M80.37 34.24h-1.376v.934h1.631v.576h-2.332v-3.478h2.327v.581h-1.631v.826h1.375l.006.56z" fill="#fff"/>
  <path d="M81.743 34.505v1.229h-.712v-3.479h1.354a1.54 1.54 0 01.69.142c.19.087.349.23.457.407.11.182.167.391.163.604a.998.998 0 01-.353.804c-.278.21-.62.314-.968.293h-.63zm0-.581h.642a.642.642 0 00.435-.13.495.495 0 00.147-.38.598.598 0 00-.147-.42.544.544 0 00-.419-.157h-.658v1.087z" fill="#fff"/>
  <path d="M86.273 32.255h.718v3.479h-.718v-2.31l-1.391 2.31h-.718v-3.479h.718v2.316l1.391-2.316z" fill="#fff"/>
  <path d="M89.224 35.733v-1.255h-.587l-.625 1.255h-.778l.745-1.494a1.087 1.087 0 01-.201-1.712c.267-.2.596-.3.93-.283h1.234v3.478l-.718.011zm-1.087-2.353a.544.544 0 00.141.424.615.615 0 00.43.13h.494v-1.087h-.494c-.36-.01-.55.169-.55.533h-.021z" fill="#fff"/>
</svg>
