<svg width="65" height="66" viewBox="0 0 65 66" fill="none" xmlns="http://www.w3.org/2000/svg">
    <rect x="0.5" y="1.5" width="64" height="64" rx="32" fill="white" stroke="#E3E3E3"/>
    <path d="M32.0453 36.7432C37.783 36.7432 42.4343 32.0608 42.4343 26.2847C42.4343 20.5086 37.783 15.8262 32.0453 15.8262C26.3076 15.8262 21.6562 20.5086 21.6562 26.2847C21.6562 32.0608 26.3076 36.7432 32.0453 36.7432Z" fill="url(#paint0_linear)"/>
    <path fill-rule="evenodd" clip-rule="evenodd" d="M39.4697 39.7052C42.5877 40.5521 45.1951 41.7377 46.8319 42.5829C49.4596 43.9412 51.093 46.6222 51.0931 49.5781V50.854C51.0931 52.7767 49.5391 54.3402 47.6301 54.3402H34.6438L34.8811 50.2186L38.4297 40.2525C38.5803 39.8252 39.0368 39.5827 39.4697 39.7052ZM29.212 50.2186L25.6634 40.2525C25.5129 39.8252 25.0547 39.5835 24.6234 39.7052C21.5054 40.5521 18.898 41.7377 17.2612 42.5829C14.6334 43.9412 13 46.6222 13 49.5781V50.854C13 52.7766 14.554 54.3402 16.463 54.3402H29.4493L29.212 50.2186Z" fill="url(#paint1_linear)"/>
    <path d="M34.8811 50.2186L33.8068 44.8094L35.4656 39.7997C35.5535 39.5341 35.5096 39.2414 35.3455 39.0141C35.1832 38.7868 34.9228 38.6523 34.6438 38.6523H29.4493C29.1703 38.6523 28.9099 38.7868 28.7476 39.0141C28.5835 39.2413 28.5395 39.5341 28.6275 39.7997L30.2863 44.8094L29.212 50.2186L29.4493 54.3402H34.6438L34.8811 50.2186Z" fill="#FF8712"/>
    <path d="M62 10.5C62 16.2986 57.2986 21 51.5 21C45.7014 21 41 16.2986 41 10.5C41 4.70137 45.7014 0 51.5 0C57.2986 0 62 4.70137 62 10.5Z" fill="#222628"/>
    <path d="M57.0214 5.60547L49.937 12.6872L47.0193 9.77161L45.5625 11.2284L49.937 15.6049L58.4776 7.06224L57.0214 5.60547Z" fill="white"/>
    <defs>
        <linearGradient id="paint0_linear" x1="32.0453" y1="15.8262" x2="32.0453" y2="36.7432" gradientUnits="userSpaceOnUse">
            <stop stop-color="#515151"/>
            <stop offset="0.21875" stop-color="#6A6A6A"/>
            <stop offset="0.427083" stop-color="#515151"/>
            <stop offset="1" stop-color="#121212"/>
        </linearGradient>
        <linearGradient id="paint1_linear" x1="32.0466" y1="38.6523" x2="32.0466" y2="54.3402" gradientUnits="userSpaceOnUse">
            <stop stop-color="#515151"/>
            <stop offset="0.21875" stop-color="#6A6A6A"/>
            <stop offset="0.427083" stop-color="#515151"/>
            <stop offset="1" stop-color="#121212"/>
        </linearGradient>
    </defs>
</svg>
