<svg width="42" height="42" viewBox="0 0 42 42" fill="none" xmlns="http://www.w3.org/2000/svg">
    <path d="M37.4677 25.7786L32.8135 31.8649C31.8822 33.0827 30.4367 33.797 28.9037 33.797H20.2617C19.5822 33.797 19.0312 33.2461 19.0312 32.5666C19.0312 31.887 19.5822 31.3361 20.2617 31.3361H27.7519C29.3618 31.3361 30.71 30.0186 30.6792 28.409C30.6493 26.8491 29.3756 25.5939 27.8086 25.5939H19.1953C16.7223 23.2161 12.9061 22.9378 10.1143 24.9319L9.1875 25.5939V39.5392H17.3906H19.0312H30.5865C33.0986 39.5392 35.4383 38.2618 36.7968 36.1487L41.5988 28.6788C41.8607 28.2714 41.9999 27.7973 41.9999 27.3129C42 24.8975 38.9349 23.8598 37.4677 25.7786Z" fill="url(#paint0_linear)"/>
    <path d="M5.49609 23.1328H1.23047C0.550922 23.1328 0 23.6837 0 24.3633V40.7695C0 41.4491 0.550922 42 1.23047 42H5.49609C6.17564 42 6.72656 41.4491 6.72656 40.7695V24.3633C6.72656 23.6837 6.17564 23.1328 5.49609 23.1328Z" fill="url(#paint1_linear)"/>
    <path d="M24.3633 20.5078C30.0173 20.5078 34.6172 15.9079 34.6172 10.2539C34.6172 4.5999 30.0173 0 24.3633 0C18.7093 0 14.1094 4.5999 14.1094 10.2539C14.1094 15.9079 18.7093 20.5078 24.3633 20.5078ZM21.2593 13.6064C21.5072 13.2275 22.0157 13.1208 22.3949 13.369C22.8379 13.6589 23.1156 13.7845 23.4864 13.8366V10.3724C22.9624 10.1323 22.5708 9.90117 22.2495 9.64909C21.5687 9.11515 21.2579 8.18885 21.4383 7.23146C21.6348 6.18819 22.3611 5.35812 23.3334 5.06527C23.3849 5.04976 23.4358 5.03557 23.4864 5.0222V4.51172C23.4864 4.05874 23.8537 3.69141 24.3067 3.69141C24.7597 3.69141 25.127 4.05874 25.127 4.51172V4.93229C25.9234 5.07019 26.4863 5.4623 26.759 5.77525C27.0566 6.11682 27.0208 6.63502 26.6793 6.93254C26.3395 7.22851 25.8251 7.19488 25.5266 6.8583C25.5079 6.83936 25.3776 6.71385 25.127 6.6214V9.27199C25.2726 9.32605 25.4181 9.37847 25.5609 9.429C27.0029 9.93874 27.8049 11.2736 27.5567 12.7505C27.3637 13.8986 26.49 15.0628 25.127 15.4086V15.9961C25.127 16.4491 24.7597 16.8164 24.3067 16.8164C23.8537 16.8164 23.4864 16.4491 23.4864 15.9961V15.4873C22.824 15.4301 22.275 15.2512 21.4967 14.742C21.1176 14.4939 21.0113 13.9856 21.2593 13.6064Z" fill="#FA7D08"/>
    <defs>
        <linearGradient id="paint0_linear" x1="25.5937" y1="23.6045" x2="25.5937" y2="39.5392" gradientUnits="userSpaceOnUse">
            <stop stop-color="#515151"/>
            <stop offset="0.21875" stop-color="#6A6A6A"/>
            <stop offset="0.427083" stop-color="#515151"/>
            <stop offset="1" stop-color="#121212"/>
        </linearGradient>
        <linearGradient id="paint1_linear" x1="3.36328" y1="23.1328" x2="3.36328" y2="42" gradientUnits="userSpaceOnUse">
            <stop stop-color="#515151"/>
            <stop offset="0.21875" stop-color="#6A6A6A"/>
            <stop offset="0.427083" stop-color="#515151"/>
            <stop offset="1" stop-color="#121212"/>
        </linearGradient>
    </defs>
</svg>
