<svg width="4" height="6" viewBox="0 0 4 6" fill="none" xmlns="http://www.w3.org/2000/svg">
    <path d="M0.423814 0.111376C0.349584 0.185544 0.3125 0.273462 0.3125 0.375049L0.3125 5.62497C0.3125 5.7266 0.349584 5.81446 0.423814 5.88869C0.498126 5.96292 0.585983 6 0.687549 6C0.789094 6 0.876951 5.96292 0.951201 5.88869L3.57617 3.26371C3.6504 3.1894 3.68757 3.10155 3.68757 3C3.68757 2.89845 3.6504 2.81052 3.57617 2.73635L0.95118 0.111376C0.876951 0.0372276 0.789094 -2.08326e-08 0.687528 -1.6393e-08C0.585983 -1.19543e-08 0.498126 0.0372276 0.423814 0.111376Z" fill="#BCBDBE"/>
</svg>
