<svg width="40" height="42" viewBox="0 0 40 42" fill="none" xmlns="http://www.w3.org/2000/svg">
    <path d="M36.621 22.3221L26.5773 29.4307C26.025 29.8216 25.2562 29.694 24.8621 29.1372L22.0187 25.1197C21.6261 24.565 21.7575 23.7971 22.3122 23.4045L22.8662 23.0123C19.8947 20.6642 17.0197 16.55 15.7741 12.9571L15.2036 13.3608C14.649 13.7533 13.881 13.622 13.4884 13.0673L10.645 9.04984C10.2526 8.49556 10.3838 7.72717 10.9385 7.33465L20.9822 0.226235C21.5368 -0.166367 22.3048 -0.0350348 22.6974 0.519743L25.5409 4.53714C25.9332 5.09151 25.802 5.85981 25.2474 6.25233L24.6759 6.65675C27.7021 9.06838 30.5956 13.169 31.8008 16.6888L32.3559 16.2959C32.9106 15.9034 33.6785 16.0346 34.0711 16.5894L36.9146 20.6068C37.3069 21.1612 37.1757 21.9296 36.621 22.3221Z" fill="url(#paint0_linear)"/>
    <path d="M1.56002 26.0325L14.7329 16.7091C15.8394 18.8343 17.3382 20.9706 18.9845 22.7448L5.82515 32.0586C4.15894 33.2379 1.85796 32.8431 0.679501 31.178C-0.499123 29.5128 -0.105453 27.2112 1.56002 26.0325Z" fill="url(#paint1_linear)"/>
    <path d="M13.6172 34.6172H14.8477C15.5261 34.6172 16.0781 34.0652 16.0781 33.3867C16.0781 32.7072 16.629 32.1562 17.3086 32.1562H34.5352C35.2147 32.1562 35.7656 32.7072 35.7656 33.3867C35.7656 34.0652 36.3176 34.6172 36.9961 34.6172H38.2266C38.9061 34.6172 39.457 35.1681 39.457 35.8476V40.7695C39.457 41.4491 38.9061 42 38.2266 42H13.6172C12.9376 42 12.3867 41.4491 12.3867 40.7695V35.8476C12.3867 35.1681 12.9376 34.6172 13.6172 34.6172Z" fill="#FA7D08"/>
    <defs>
        <linearGradient id="paint0_linear" x1="18.5704" y1="0" x2="18.5704" y2="32.7382" gradientUnits="userSpaceOnUse">
            <stop stop-color="#515151"/>
            <stop offset="0.21875" stop-color="#6A6A6A"/>
            <stop offset="0.427083" stop-color="#515151"/>
            <stop offset="1" stop-color="#121212"/>
        </linearGradient>
        <linearGradient id="paint1_linear" x1="18.5704" y1="0" x2="18.5704" y2="32.7382" gradientUnits="userSpaceOnUse">
            <stop stop-color="#515151"/>
            <stop offset="0.21875" stop-color="#6A6A6A"/>
            <stop offset="0.427083" stop-color="#515151"/>
            <stop offset="1" stop-color="#121212"/>
        </linearGradient>
    </defs>
</svg>
