<svg width="65" height="66" viewBox="0 0 65 66" fill="none" xmlns="http://www.w3.org/2000/svg">
    <rect x="0.5" y="1.5" width="64" height="64" rx="32" fill="white" stroke="#E3E3E3"/>
    <path d="M51.9993 28.4377C51.9993 25.9353 51.9993 24.1847 51.9993 24.0187C51.9993 22.1602 50.4973 20.6483 48.6513 20.6483H48.2048V24.7677C48.2048 25.3881 47.7052 25.8911 47.0888 25.8911C46.4725 25.8911 45.9728 25.3881 45.9728 24.7677C45.9728 23.5065 45.9728 20.0317 45.9728 18.7758C45.9728 18.1554 45.4732 17.6523 44.8568 17.6523C44.2405 17.6523 43.7408 18.1554 43.7408 18.7758V20.6483H36.3008V24.7677C36.3008 25.3881 35.8011 25.8911 35.1848 25.8911C34.5684 25.8911 34.0688 25.3881 34.0688 24.7677C34.0688 23.5065 34.0688 20.0317 34.0688 18.7758C34.0688 18.1554 33.5691 17.6523 32.9528 17.6523C32.3364 17.6523 31.8368 18.1554 31.8368 18.7758V20.6483H24.3967V24.7677C24.3967 25.3881 23.897 25.8911 23.2807 25.8911C22.6644 25.8911 22.1647 25.3881 22.1647 24.7677C22.1647 23.5065 22.1647 20.0317 22.1647 18.7758C22.1647 18.1554 21.665 17.6523 21.0487 17.6523C20.4324 17.6523 19.9327 18.1554 19.9327 18.7758V20.6483H17.2543C15.4082 20.6483 13.9062 22.1602 13.9062 24.0187V28.4377H51.9993Z" fill="#FA7D08"/>
    <path d="M13.9062 30.6846V48.8848C13.9062 50.7433 15.4082 52.2552 17.2543 52.2552H48.6513C50.4973 52.2552 51.9993 50.7433 51.9993 48.8848C51.9993 48.4036 51.9993 37.8889 51.9993 30.6846C51.3047 30.6846 14.2905 30.6846 13.9062 30.6846ZM24.6199 46.2634H22.2391C21.6228 46.2634 21.1231 45.7604 21.1231 45.1399C21.1231 44.5194 21.6228 44.0164 22.2391 44.0164H24.6199C25.2362 44.0164 25.7359 44.5194 25.7359 45.1399C25.7359 45.7604 25.2362 46.2634 24.6199 46.2634ZM24.6199 41.4699H22.2391C21.6228 41.4699 21.1231 40.9669 21.1231 40.3464C21.1231 39.726 21.6228 39.223 22.2391 39.223H24.6199C25.2362 39.223 25.7359 39.726 25.7359 40.3464C25.7359 40.9669 25.2362 41.4699 24.6199 41.4699ZM24.6199 36.6764H22.2391C21.6228 36.6764 21.1231 36.1734 21.1231 35.5529C21.1231 34.9325 21.6228 34.4295 22.2391 34.4295H24.6199C25.2362 34.4295 25.7359 34.9325 25.7359 35.5529C25.7359 36.1734 25.2362 36.6764 24.6199 36.6764ZM34.1432 46.2634H31.7624C31.146 46.2634 30.6463 45.7604 30.6463 45.1399C30.6463 44.5194 31.146 44.0164 31.7624 44.0164H34.1432C34.7595 44.0164 35.2592 44.5194 35.2592 45.1399C35.2592 45.7604 34.7595 46.2634 34.1432 46.2634ZM34.1432 41.4699H31.7624C31.146 41.4699 30.6463 40.9669 30.6463 40.3464C30.6463 39.726 31.146 39.223 31.7624 39.223H34.1432C34.7595 39.223 35.2592 39.726 35.2592 40.3464C35.2592 40.9669 34.7595 41.4699 34.1432 41.4699ZM34.1432 36.6764H31.7624C31.146 36.6764 30.6463 36.1734 30.6463 35.5529C30.6463 34.9325 31.146 34.4295 31.7624 34.4295H34.1432C34.7595 34.4295 35.2592 34.9325 35.2592 35.5529C35.2592 36.1734 34.7595 36.6764 34.1432 36.6764ZM43.6664 46.2634H41.2856C40.6693 46.2634 40.1696 45.7604 40.1696 45.1399C40.1696 44.5194 40.6693 44.0164 41.2856 44.0164H43.6664C44.2828 44.0164 44.7824 44.5194 44.7824 45.1399C44.7824 45.7604 44.2828 46.2634 43.6664 46.2634ZM43.6664 41.4699H41.2856C40.6693 41.4699 40.1696 40.9669 40.1696 40.3464C40.1696 39.726 40.6693 39.223 41.2856 39.223H43.6664C44.2828 39.223 44.7824 39.726 44.7824 40.3464C44.7824 40.9669 44.2828 41.4699 43.6664 41.4699ZM43.6664 36.6764H41.2856C40.6693 36.6764 40.1696 36.1734 40.1696 35.5529C40.1696 34.9325 40.6693 34.4295 41.2856 34.4295H43.6664C44.2828 34.4295 44.7824 34.9325 44.7824 35.5529C44.7824 36.1734 44.2828 36.6764 43.6664 36.6764Z" fill="url(#paint0_linear)"/>
    <path d="M62 10.5C62 16.2986 57.2986 21 51.5 21C45.7014 21 41 16.2986 41 10.5C41 4.70137 45.7014 0 51.5 0C57.2986 0 62 4.70137 62 10.5Z" fill="#222628"/>
    <path d="M57.0214 5.60547L49.937 12.6872L47.0193 9.77161L45.5625 11.2284L49.937 15.6049L58.4776 7.06224L57.0214 5.60547Z" fill="white"/>
    <defs>
        <linearGradient id="paint0_linear" x1="32.9528" y1="30.6846" x2="32.9528" y2="52.2552" gradientUnits="userSpaceOnUse">
            <stop stop-color="#515151"/>
            <stop offset="0.21875" stop-color="#6A6A6A"/>
            <stop offset="0.427083" stop-color="#515151"/>
            <stop offset="1" stop-color="#121212"/>
        </linearGradient>
    </defs>
</svg>
