<svg width="15" height="14" viewBox="0 0 15 14" fill="none" xmlns="http://www.w3.org/2000/svg">
    <path d="M5.79803 8.20286C4.46175 6.86658 4.16003 5.53031 4.09196 4.99493C4.07294 4.84689 4.12388 4.69844 4.22979 4.59327L5.31116 3.51238C5.47024 3.3534 5.49847 3.10565 5.37923 2.91496L3.65747 0.241445C3.52556 0.0302982 3.25472 -0.0459068 3.03206 0.0654796L0.268026 1.36724C0.0879717 1.4559 -0.0179341 1.6472 0.00250914 1.84686C0.147337 3.22272 0.747164 6.60493 4.07096 9.92896C7.39475 13.253 10.7765 13.8526 12.1531 13.9974C12.3527 14.0179 12.544 13.9119 12.6327 13.7319L13.9344 10.9679C14.0454 10.7457 13.9697 10.4756 13.7594 10.3434L11.0859 8.62214C10.8953 8.50278 10.6476 8.53081 10.4885 8.68972L9.40761 9.7711C9.30245 9.87701 9.15399 9.92795 9.00596 9.90893C8.47058 9.84086 7.1343 9.53914 5.79803 8.20286Z" fill="#FA7D08"/>
    <path d="M11.1057 7.48278C10.8391 7.48278 10.623 7.26664 10.623 7.00002C10.6207 5.00131 9.001 3.3816 7.00229 3.37934C6.73567 3.37934 6.51953 3.1632 6.51953 2.89658C6.51953 2.62996 6.73567 2.41382 7.00229 2.41382C9.53402 2.41661 11.5857 4.46829 11.5885 7.00002C11.5885 7.26664 11.3724 7.48278 11.1057 7.48278Z" fill="#FA7D08"/>
    <path d="M13.5196 7.48276C13.2529 7.48276 13.0368 7.26662 13.0368 7C13.0331 3.66879 10.3335 0.969242 7.00229 0.965517C6.73567 0.965517 6.51953 0.749379 6.51953 0.482759C6.51953 0.216138 6.73567 0 7.00229 0C10.8665 0.00425693 13.9981 3.13577 14.0023 7C14.0023 7.12804 13.9515 7.25083 13.8609 7.34136C13.7704 7.4319 13.6476 7.48276 13.5196 7.48276Z" fill="#FA7D08"/>
</svg>
