<svg width="18" height="18" viewBox="0 0 18 18" fill="none" xmlns="http://www.w3.org/2000/svg">
    <path d="M7.45417 10.5466C5.7362 8.82847 5.34829 7.11039 5.26078 6.42203C5.23633 6.2317 5.30182 6.04083 5.43798 5.90561L6.82824 4.51587C7.03275 4.31148 7.06904 3.99293 6.91575 3.74776L4.70219 0.310348C4.5326 0.0388707 4.18439 -0.0591082 3.89814 0.0841043L0.344585 1.75781C0.1131 1.8718 -0.0230568 2.11777 0.00322584 2.37447C0.189422 4.14346 0.960584 8.49205 5.23378 12.7659C9.50698 17.0397 13.8547 17.8106 15.6245 17.9968C15.8811 18.0231 16.1271 17.8869 16.2411 17.6554L17.9147 14.1016C18.0573 13.8159 17.96 13.4686 17.6897 13.2987L14.2525 11.0856C14.0075 10.9322 13.689 10.9682 13.4844 11.1725L12.0948 12.5629C11.9596 12.6991 11.7687 12.7646 11.5784 12.7401C10.8901 12.6526 9.17214 12.2646 7.45417 10.5466Z" fill="white"/>
    <path d="M14.2761 9.62079C13.9333 9.62079 13.6554 9.3429 13.6554 9.00009C13.6525 6.43029 11.5702 4.34778 9.00053 4.34487C8.65775 4.34487 8.37987 4.06698 8.37987 3.72418C8.37987 3.38138 8.65775 3.10348 9.00053 3.10348C12.2554 3.10707 14.8931 5.74497 14.8967 9.00009C14.8967 9.3429 14.6189 9.62079 14.2761 9.62079Z" fill="white"/>
    <path d="M17.3793 9.62079C17.0366 9.62079 16.7587 9.3429 16.7587 9.00009C16.7539 4.71707 13.2833 1.24618 9.00053 1.24139C8.65775 1.24139 8.37987 0.963497 8.37987 0.620696C8.37987 0.277895 8.65775 0 9.00053 0C13.9685 0.00547326 17.9945 4.03175 18 9.00009C18 9.16471 17.9346 9.32259 17.8182 9.43899C17.7018 9.5554 17.544 9.62079 17.3793 9.62079Z" fill="white"/>
</svg>
