<svg width="17" height="16" viewBox="0 0 17 16" fill="none" xmlns="http://www.w3.org/2000/svg">
    <path d="M7.31559 0C3.4305 0 0.269531 3.16097 0.269531 7.04606C0.269531 10.9314 3.4305 14.0921 7.31559 14.0921C11.2009 14.0921 14.3617 10.9314 14.3617 7.04606C14.3617 3.16097 11.2009 0 7.31559 0ZM7.31559 12.7913C4.14769 12.7913 1.57034 10.214 1.57034 7.04609C1.57034 3.87819 4.14769 1.30081 7.31559 1.30081C10.4835 1.30081 13.0608 3.87816 13.0608 7.04606C13.0608 10.214 10.4835 12.7913 7.31559 12.7913Z" fill="#BEBEBE"/>
    <path d="M16.0776 14.8903L12.3485 11.1613C12.0944 10.9072 11.6829 10.9072 11.4289 11.1613C11.1748 11.4151 11.1748 11.8271 11.4289 12.081L15.1579 15.81C15.2849 15.937 15.4512 16.0005 15.6177 16.0005C15.784 16.0005 15.9505 15.937 16.0776 15.81C16.3317 15.5561 16.3317 15.1442 16.0776 14.8903Z" fill="#BEBEBE"/>
</svg>
