<svg width="100" height="100" viewBox="0 0 100 100" fill="none" xmlns="http://www.w3.org/2000/svg">
    <rect x="1" y="1" width="98" height="98" rx="49" fill="white" stroke="#CECECE" stroke-width="2"/>
    <path d="M53.8284 29.5378C51.2895 28.7912 47.1006 28.665 44.8046 30.1849C44.5661 30.3429 44.382 30.5128 44.2185 30.6861C42.9562 31.3696 42.4393 32.9657 43.0914 34.4095C44.2095 36.8855 47.7166 37.4095 50.089 37.3911C52.3161 37.3735 55.5613 36.9113 56.7129 34.6661C57.9129 32.3265 56.0225 30.1831 53.8284 29.5378Z" fill="#FA7D08"/>
    <path d="M57.8001 37.3027C58.0987 36.6416 57.1397 35.9911 56.5945 36.53C53.0351 40.0474 46.3975 40.4066 42.9726 36.2766L42.9553 36.294C42.825 36.1696 42.604 36.1382 42.503 36.3375C42.4942 36.355 42.4934 36.3711 42.485 36.3885C42.2193 36.4385 41.982 36.6431 41.9759 36.9846C41.8973 41.3975 45.5218 45.3434 49.9303 45.5703C54.4072 45.8008 58.2282 41.8751 57.8173 37.3653C57.815 37.3416 57.8039 37.3254 57.8001 37.3027Z" fill="url(#paint0_linear)"/>
    <path d="M54.2113 47.1891C54.4081 46.6322 53.8861 45.9533 53.227 46.3195C52.1397 46.9237 51.0168 47.2655 49.7619 47.1697C48.7837 47.095 47.9441 46.5802 47.0134 46.4524C46.7249 46.211 46.194 46.4193 46.1467 46.8601C45.8293 49.8149 45.9234 55.2943 50.1236 55.358C53.3284 55.4066 54.6041 51.6636 54.1175 48.8539C54.1747 48.2726 54.2071 47.7029 54.2113 47.1891Z" fill="url(#paint1_linear)"/>
    <path d="M68.7254 53.8226C68.8154 51.8312 68.8947 49.4413 66.8621 48.5453C65.4239 47.9113 63.5206 48.3685 62.023 48.3964C59.9025 48.4357 57.7864 48.2972 55.6671 48.3274C55.3046 48.3326 54.9648 48.6415 54.9781 49.022C54.9903 49.3746 55.0248 49.7204 55.0573 50.067C54.9397 50.2161 54.857 50.3953 54.8954 50.6306C55.4771 54.1879 52.4943 57.4242 48.8617 56.4982C45.6415 55.6773 45.4429 52.8909 45.0606 50.168C45.3598 49.8631 45.2607 49.2889 44.7024 49.2418C41.0642 48.9352 38.0697 48.4996 35.8513 48.8131C34.7908 48.2115 33.4221 48.5066 32.4761 49.3958C30.9175 50.8605 31.1233 53.3398 31.1366 55.2808C31.1481 56.962 30.5365 59.987 31.8122 61.3777C32.708 62.3541 34.4206 62.7705 35.7687 62.4803C38.7345 63.234 42.8585 62.4216 46.8643 62.3959C52.179 62.362 60.0183 63.8497 65.1382 62.2696C67.8746 61.4251 67.9475 61.0509 68.574 57.931C68.9195 56.2106 68.9406 54.8814 68.7254 53.8226Z" fill="url(#paint2_linear)"/>
    <path d="M68.8946 63.3748C68.8471 63.1742 68.6708 63.0707 68.4841 63.0376C68.2969 62.849 68.0128 62.7481 67.7077 62.8856C61.6957 65.5953 53.3266 64.1746 46.9385 64.0582C42.5309 63.9779 36.873 64.3548 32.6703 62.7426C32.2578 62.5843 31.9782 62.865 31.9099 63.2078C31.9086 63.2115 31.9042 63.213 31.9028 63.2168C28.6363 73.1803 43.752 70.5052 49.0044 70.5155C53.7984 70.525 62.0465 71.9224 66.4501 69.924C68.5282 68.981 68.9972 67.5401 68.8018 65.6222C69.01 64.8955 69.0741 64.136 68.8946 63.3748Z" fill="url(#paint3_linear)"/>
    <path d="M98 17.5C98 23.2986 93.2986 28 87.5 28C81.7014 28 77 23.2986 77 17.5C77 11.7014 81.7014 7 87.5 7C93.2986 7 98 11.7014 98 17.5Z" fill="#222628"/>
    <path d="M93.0214 12.6055L85.937 19.6872L83.0193 16.7716L81.5625 18.2284L85.937 22.6049L94.4776 14.0622L93.0214 12.6055Z" fill="white"/>
    <defs>
        <linearGradient id="paint0_linear" x1="49.9155" y1="36.1943" x2="49.9155" y2="45.58" gradientUnits="userSpaceOnUse">
            <stop stop-color="#515151"/>
            <stop offset="0.21875" stop-color="#6A6A6A"/>
            <stop offset="0.427083" stop-color="#515151"/>
            <stop offset="1" stop-color="#121212"/>
        </linearGradient>
        <linearGradient id="paint1_linear" x1="50.1443" y1="46.2158" x2="50.1443" y2="55.3585" gradientUnits="userSpaceOnUse">
            <stop stop-color="#515151"/>
            <stop offset="0.21875" stop-color="#6A6A6A"/>
            <stop offset="0.427083" stop-color="#515151"/>
            <stop offset="1" stop-color="#121212"/>
        </linearGradient>
        <linearGradient id="paint2_linear" x1="49.9325" y1="48.2109" x2="49.9325" y2="62.9981" gradientUnits="userSpaceOnUse">
            <stop stop-color="#515151"/>
            <stop offset="0.21875" stop-color="#6A6A6A"/>
            <stop offset="0.427083" stop-color="#515151"/>
            <stop offset="1" stop-color="#121212"/>
        </linearGradient>
        <linearGradient id="paint3_linear" x1="50.2224" y1="62.6973" x2="50.2224" y2="70.9994" gradientUnits="userSpaceOnUse">
            <stop stop-color="#515151"/>
            <stop offset="0.21875" stop-color="#6A6A6A"/>
            <stop offset="0.427083" stop-color="#515151"/>
            <stop offset="1" stop-color="#121212"/>
        </linearGradient>
    </defs>
</svg>
