<svg width="50" height="50" viewBox="0 0 50 50" fill="none" xmlns="http://www.w3.org/2000/svg">
    <rect x="0.5" y="0.5" width="49" height="49" rx="24.5" fill="white" stroke="#E3E3E3"/>
    <path d="M30.2692 17.3818C28.8578 14.5 25.9055 12.5947 22.5939 12.5947C17.8554 12.5947 14.0004 16.4279 14.0004 21.1394C14.0004 22.4199 14.2753 23.6472 14.8178 24.7914L14.0146 28.8082C13.9123 29.3195 14.3634 29.7714 14.8748 29.6703L18.9411 28.8663C19.4886 29.126 20.055 29.3235 20.6369 29.4596C19.3324 23.281 24.0157 17.4813 30.2692 17.3818Z" fill="#FA7D08"/>
    <path d="M38.1831 31.0411C38.3234 30.7452 38.4455 30.4436 38.5499 30.1371H38.523C40.3515 24.7702 36.5063 19.1295 30.8295 18.8549C30.8294 18.8546 30.8294 18.8543 30.8293 18.854C25.9448 18.6289 21.8867 22.5397 21.8867 27.3891C21.8867 32.0967 25.7129 35.9269 30.4189 35.9337C31.6954 35.932 32.9189 35.6572 34.0598 35.116C38.5132 35.9965 38.1659 35.9339 38.2682 35.9339C38.731 35.9339 39.0767 35.5097 38.9864 35.0579L38.1831 31.0411Z" fill="url(#paint0_linear)"/>
    <defs>
        <linearGradient id="paint0_linear" x1="30.4438" y1="18.8447" x2="30.4438" y2="35.9348" gradientUnits="userSpaceOnUse">
            <stop stop-color="#515151"/>
            <stop offset="0.21875" stop-color="#6A6A6A"/>
            <stop offset="0.427083" stop-color="#515151"/>
            <stop offset="1" stop-color="#121212"/>
        </linearGradient>
    </defs>
</svg>
