<svg width="14" height="14" viewBox="0 0 14 14" fill="none" xmlns="http://www.w3.org/2000/svg">
    <path d="M7 0C3.13907 0 0 3.13907 0 7C0 10.8609 3.13907 14 7 14C10.8609 14 14 10.8609 14 7C14 3.13907 10.8609 0 7 0ZM10.3305 10.6203C10.2157 10.7351 10.068 10.7926 9.9176 10.7926C9.76721 10.7926 9.61955 10.7351 9.50467 10.6203L6.58711 7.70545C6.47773 7.59611 6.41758 7.44844 6.41758 7.29258V3.5C6.41758 3.17734 6.68008 2.91758 7 2.91758C7.31992 2.91758 7.5824 3.17734 7.5824 3.5V7.04922L10.3277 9.79455C10.5574 10.0242 10.5574 10.3934 10.3305 10.6203Z" fill="#FA7D08"/>
</svg>
